<svg width="155" height="142" viewBox="0 0 155 142" fill="none" xmlns="http://www.w3.org/2000/svg">
<path d="M3 70.5H84M84 70.5L67.9733 88M84 70.5L67.9733 53M19.0267 56.5L32.0214 70.5L19.0267 84.5M3.43316 56.5L16.4278 70.5L3.43316 84.5" stroke="white" stroke-width="6" stroke-linecap="round" stroke-linejoin="round"/>
<path d="M28.4109 55.8165C32.0444 42.2562 40.4901 30.4824 52.1704 22.6943C63.8507 14.9062 77.9667 11.6366 91.8817 13.4962C105.797 15.3557 118.559 22.2173 127.784 32.7991C137.01 43.381 142.067 56.9594 142.012 70.9979C141.958 85.0365 136.794 98.575 127.486 109.085C118.179 119.594 105.363 126.356 91.4345 128.107C77.5054 129.858 63.4153 126.478 51.7962 118.599C40.177 110.72 31.8234 98.8806 28.2959 85.2924" stroke="white" stroke-width="6" stroke-linecap="round"/>
<path d="M42.917 61.984C44.981 51.5355 50.8479 42.2244 59.3821 35.8528C67.9163 29.4813 78.5109 26.5024 89.1151 27.4929C99.7193 28.4834 109.579 33.3728 116.785 41.2146C123.992 49.0565 128.033 59.2931 128.126 69.943C128.22 80.5929 124.359 90.8988 117.29 98.8656C110.222 106.833 100.45 111.894 89.8647 113.07C79.2795 114.246 68.6344 111.453 59.9898 105.232C51.3453 99.011 45.3162 89.8041 43.0695 79.3934" stroke="white" stroke-width="6" stroke-linecap="round"/>
<path d="M83.3734 54.9365C85.4851 54.5646 87.6519 54.6477 89.7289 55.1804C91.8059 55.7131 93.7452 56.6831 95.4173 58.0255C97.0893 59.3679 98.4554 61.0517 99.4244 62.9645C100.393 64.8773 100.943 66.975 101.036 69.1172C101.129 71.2594 100.764 73.3968 99.9646 75.3864C99.1654 77.3761 97.9506 79.1723 96.4014 80.6548C94.8522 82.1373 93.0044 83.2719 90.9815 83.9829C88.9586 84.6939 86.8072 84.9649 84.6712 84.7776" stroke="white" stroke-width="6" stroke-linecap="round"/>
</svg>
