<svg width="285" height="194" viewBox="0 0 285 194" fill="none" xmlns="http://www.w3.org/2000/svg">
<path d="M142.936 0V27.5L98.9554 78.5C150.932 85.5 170.923 147.5 122.945 182L285 88.3296V0H142.936Z" fill="url(#paint0_linear_4_67)"/>
<path d="M99.9291 77.6545C116.629 80.3792 129.427 86.6461 138.322 96.4551C147.216 106.082 151.664 118.071 151.664 132.421C151.664 143.502 148.759 153.765 142.951 163.211C137.141 172.475 128.247 179.922 116.267 185.553C104.467 191.184 89.9453 194 72.7004 194C59.2677 194 46.0164 192.274 32.9467 188.823C20.0585 185.19 9.07621 180.104 0 173.565L17.1541 139.778C24.415 145.228 32.7651 149.496 42.2044 152.584C51.8252 155.491 61.6274 156.944 71.6113 156.944C82.6842 156.944 91.3974 154.855 97.7508 150.677C104.104 146.317 107.281 140.232 107.281 132.421C107.281 116.8 95.391 108.989 71.6113 108.989H51.4621V79.8343L90.6713 35.4213H9.53003V0H142.951V28.6096L99.9291 77.6545Z" fill="#E80000"/>
<defs>
<linearGradient id="paint0_linear_4_67" x1="274.5" y1="52.0223" x2="127.443" y2="52.0223" gradientUnits="userSpaceOnUse">
<stop stop-color="#5A0000" stop-opacity="0"/>
<stop offset="1" stop-color="#5A0000"/>
</linearGradient>
</defs>
</svg>
