<svg width="285" height="194" viewBox="0 0 285 194" fill="none" xmlns="http://www.w3.org/2000/svg">
<path d="M75.99 0C137.982 6.5 163.978 61.5 123.984 106L68.491 158.5H152.98L153.48 194L285 125.33V0H75.99Z" fill="url(#paint0_linear_4_72)"/>
<path d="M153.48 158.034V194H8.77743V165.39L82.8369 95.9101C90.7001 88.4626 96.0031 82.1049 98.7461 76.8371C101.489 71.3876 102.861 66.029 102.861 60.7612C102.861 53.132 100.209 47.3193 94.906 43.323C89.7857 39.1451 82.1969 37.0562 72.1394 37.0562C63.7277 37.0562 56.1389 38.691 49.373 41.9607C42.6071 45.0487 36.9384 49.7715 32.3668 56.1292L0 35.4213C7.49739 24.3408 17.8292 15.7125 30.9952 9.53651C44.1614 3.17883 59.2476 0 76.2539 0C90.5172 0 102.951 2.36142 113.558 7.08426C124.347 11.6255 132.668 18.1648 138.519 26.7022C144.553 35.058 147.571 44.9579 147.571 56.4017C147.571 66.7556 145.376 76.4738 140.988 85.5562C136.599 94.6386 128.095 104.993 115.478 116.618L71.3165 158.034H153.48Z" fill="#E80000"/>
<defs>
<linearGradient id="paint0_linear_4_72" x1="271.5" y1="52.0223" x2="130.983" y2="52.0223" gradientUnits="userSpaceOnUse">
<stop stop-color="#5A0000" stop-opacity="0"/>
<stop offset="1" stop-color="#5A0000"/>
</linearGradient>
</defs>
</svg>
