<svg width="72" height="62" viewBox="0 0 72 62" fill="none" xmlns="http://www.w3.org/2000/svg">
<path d="M0 40.6612C0 31.028 1.62238 22.5709 4.86713 15.29C8.22378 8.00903 13.3147 2.91237 20.1399 0C22.7133 2.57633 24.951 4.70461 26.8531 6.38482C28.8671 7.95302 31.049 9.35321 33.3986 10.5854C27.6923 12.7136 23.4965 15.234 20.8112 18.1463C18.2378 21.0587 16.5594 24.4752 15.7762 28.3957H32.7273V62H0.167832L0 40.6612ZM38.6014 40.6612C38.6014 31.028 40.2238 22.5709 43.4685 15.29C46.8252 8.00903 51.9161 2.91237 58.7413 0C61.3147 2.57633 63.5525 4.70461 65.4546 6.38482C67.4685 7.95302 69.6504 9.35321 72 10.5854C66.2937 12.7136 62.0979 15.234 59.4126 18.1463C56.8392 21.0587 55.1608 24.4752 54.3776 28.3957H69.6504V62H38.7692L38.6014 40.6612Z" fill="#C40101"/>
</svg>
