<svg width="1735" height="43" viewBox="0 0 1735 43" fill="none" xmlns="http://www.w3.org/2000/svg">
<mask id="path-1-outside-1_80_212" maskUnits="userSpaceOnUse" x="-2" y="0" width="118" height="42" fill="black">
<rect fill="white" x="-2" width="118" height="42"/>
<path d="M12.4316 9.22605L0 9.22605L0 2L33.854 2V9.22605L21.4223 9.22605L21.4223 40.32H12.4316L12.4316 9.22605Z"/>
<path d="M74.3213 2V40.32L65.3306 40.32V24.6088L47.6821 24.6088V40.32H38.6914L38.6914 2L47.6821 2V17.109L65.3306 17.109V2L74.3213 2Z"/>
<path d="M113.593 33.2034V40.32L83.5128 40.32V2L112.871 2V9.11656L92.448 9.11656V17.4375L110.485 17.4375V24.3351L92.448 24.3351V33.2034H113.593Z"/>
</mask>
<path d="M12.4316 9.22605L13.9316 9.22605V7.72605L12.4316 7.72605V9.22605ZM0 9.22605H-1.5L-1.5 10.726H0L0 9.22605ZM0 2L0 0.5L-1.5 0.5L-1.5 2L0 2ZM33.854 2L35.354 2V0.5L33.854 0.5V2ZM33.854 9.22605V10.726H35.354V9.22605H33.854ZM21.4223 9.22605V7.72605H19.9223V9.22605H21.4223ZM21.4223 40.32V41.82L22.9223 41.82V40.32L21.4223 40.32ZM12.4316 40.32H10.9316L10.9316 41.82H12.4316L12.4316 40.32ZM74.3213 2H75.8213V0.5L74.3213 0.5V2ZM74.3213 40.32V41.82H75.8213V40.32H74.3213ZM65.3306 40.32H63.8306V41.82H65.3306V40.32ZM65.3306 24.6088H66.8306V23.1088H65.3306V24.6088ZM47.6821 24.6088L47.6821 23.1088H46.1821L46.1821 24.6088H47.6821ZM47.6821 40.32V41.82H49.1821V40.32H47.6821ZM38.6914 40.32H37.1914V41.82H38.6914V40.32ZM38.6914 2V0.5L37.1914 0.5V2L38.6914 2ZM47.6821 2L49.1821 2V0.5L47.6821 0.5V2ZM47.6821 17.109H46.1821V18.609H47.6821V17.109ZM65.3306 17.109V18.609H66.8306V17.109H65.3306ZM65.3306 2V0.5L63.8306 0.5V2L65.3306 2ZM113.593 33.2034H115.093V31.7034H113.593V33.2034ZM113.593 40.32V41.82H115.093V40.32H113.593ZM83.5128 40.32H82.0128V41.82H83.5128V40.32ZM83.5128 2V0.5L82.0128 0.5V2H83.5128ZM112.871 2H114.371V0.5L112.871 0.5V2ZM112.871 9.11656V10.6166H114.371V9.11656H112.871ZM92.448 9.11656V7.61656L90.948 7.61656V9.11656H92.448ZM92.448 17.4375H90.948V18.9375H92.448V17.4375ZM110.485 17.4375H111.985V15.9375H110.485V17.4375ZM110.485 24.3351V25.8351H111.985V24.3351H110.485ZM92.448 24.3351V22.8351H90.948V24.3351H92.448ZM92.448 33.2034H90.948V34.7034H92.448V33.2034ZM12.4316 7.72605L0 7.72605L0 10.726L12.4316 10.726V7.72605ZM1.5 9.22605L1.5 2L-1.5 2L-1.5 9.22605H1.5ZM0 3.5L33.854 3.5V0.5L0 0.5L0 3.5ZM32.354 2V9.22605H35.354V2L32.354 2ZM33.854 7.72605L21.4223 7.72605V10.726L33.854 10.726V7.72605ZM19.9223 9.22605L19.9223 40.32L22.9223 40.32L22.9223 9.22605H19.9223ZM21.4223 38.82H12.4316L12.4316 41.82H21.4223V38.82ZM13.9316 40.32L13.9316 9.22605L10.9316 9.22605L10.9316 40.32H13.9316ZM72.8213 2V40.32H75.8213V2L72.8213 2ZM74.3213 38.82L65.3306 38.82V41.82L74.3213 41.82V38.82ZM66.8306 40.32V24.6088H63.8306V40.32L66.8306 40.32ZM65.3306 23.1088L47.6821 23.1088L47.6821 26.1088L65.3306 26.1088V23.1088ZM46.1821 24.6088V40.32H49.1821V24.6088H46.1821ZM47.6821 38.82H38.6914V41.82H47.6821V38.82ZM40.1914 40.32L40.1914 2L37.1914 2L37.1914 40.32H40.1914ZM38.6914 3.5L47.6821 3.5V0.5L38.6914 0.5V3.5ZM46.1821 2V17.109H49.1821V2L46.1821 2ZM47.6821 18.609L65.3306 18.609V15.609L47.6821 15.609V18.609ZM66.8306 17.109V2L63.8306 2V17.109H66.8306ZM65.3306 3.5L74.3213 3.5V0.5L65.3306 0.5V3.5ZM112.093 33.2034V40.32H115.093V33.2034H112.093ZM113.593 38.82L83.5128 38.82V41.82L113.593 41.82V38.82ZM85.0128 40.32V2L82.0128 2V40.32H85.0128ZM83.5128 3.5L112.871 3.5V0.5L83.5128 0.5V3.5ZM111.371 2V9.11656H114.371V2L111.371 2ZM112.871 7.61656L92.448 7.61656V10.6166L112.871 10.6166V7.61656ZM90.948 9.11656V17.4375H93.948V9.11656H90.948ZM92.448 18.9375L110.485 18.9375V15.9375L92.448 15.9375V18.9375ZM108.985 17.4375V24.3351H111.985V17.4375H108.985ZM110.485 22.8351L92.448 22.8351V25.8351L110.485 25.8351V22.8351ZM90.948 24.3351V33.2034H93.948V24.3351H90.948ZM92.448 34.7034L113.593 34.7034V31.7034L92.448 31.7034V34.7034Z" fill="#BE0101" mask="url(#path-1-outside-1_80_212)"/>
<mask id="path-3-outside-2_80_212" maskUnits="userSpaceOnUse" x="130.69" y="0" width="200" height="43" fill="black">
<rect fill="white" x="130.69" width="200" height="43"/>
<path d="M166.377 9.22605L153.946 9.22605V40.32H145.066V9.22605L132.69 9.22605V2L166.377 2V9.22605Z"/>
<path d="M202.103 33.2034V40.32L172.023 40.32V2L201.381 2V9.11656L180.958 9.11656V17.4375L198.995 17.4375V24.3351L180.958 24.3351V33.2034L202.103 33.2034Z"/>
<path d="M243.996 2V40.32L235.116 40.32V9.22605L221.796 9.22605L221.519 17.2185C221.334 22.6563 220.89 27.0722 220.187 30.4663C219.484 33.8238 218.3 36.415 216.635 38.2397C215.007 40.028 212.713 40.9221 209.753 40.9221C208.532 40.9221 207.052 40.7214 205.313 40.32L205.868 32.8202C206.349 32.9662 206.886 33.0392 207.478 33.0392C209.624 33.0392 211.122 31.7983 211.973 29.3167C212.824 26.7985 213.361 22.8753 213.583 17.547L214.138 2L243.996 2Z"/>
<path d="M268.738 24.8825H262.523V40.32H253.587V2L262.523 2V17.4922H268.96L279.172 2L288.662 2L275.953 20.5031L289.051 40.32L278.839 40.32L268.738 24.8825Z"/>
<path d="M293.263 2L302.198 2V26.9627L320.734 2L329.17 2V40.32H320.29V15.412L301.754 40.32H293.263V2Z"/>
</mask>
<path d="M166.377 9.22605V10.726H167.877V9.22605H166.377ZM153.946 9.22605V7.72605H152.446V9.22605H153.946ZM153.946 40.32V41.82L155.446 41.82V40.32L153.946 40.32ZM145.066 40.32H143.566V41.82H145.066V40.32ZM145.066 9.22605L146.566 9.22605V7.72605L145.066 7.72605V9.22605ZM132.69 9.22605H131.19V10.726H132.69V9.22605ZM132.69 2V0.5L131.19 0.5V2L132.69 2ZM166.377 2L167.877 2V0.5L166.377 0.5V2ZM202.103 33.2034H203.603V31.7034H202.103V33.2034ZM202.103 40.32V41.82H203.603V40.32H202.103ZM172.023 40.32H170.523V41.82H172.023V40.32ZM172.023 2V0.5L170.523 0.5V2H172.023ZM201.381 2H202.881V0.5L201.381 0.5V2ZM201.381 9.11656V10.6166H202.881V9.11656H201.381ZM180.958 9.11656V7.61656L179.458 7.61656V9.11656H180.958ZM180.958 17.4375H179.458V18.9375H180.958V17.4375ZM198.995 17.4375H200.495V15.9375H198.995V17.4375ZM198.995 24.3351V25.8351H200.495V24.3351H198.995ZM180.958 24.3351V22.8351H179.458V24.3351H180.958ZM180.958 33.2034H179.458V34.7034H180.958V33.2034ZM243.996 2L245.496 2V0.5L243.996 0.5V2ZM243.996 40.32V41.82H245.496V40.32H243.996ZM235.116 40.32H233.616V41.82H235.116V40.32ZM235.116 9.22605H236.616V7.72605H235.116V9.22605ZM221.796 9.22605V7.72605H220.348L220.297 9.174L221.796 9.22605ZM221.519 17.2185L220.02 17.1664L220.02 17.1675L221.519 17.2185ZM220.187 30.4663L221.655 30.7736L221.656 30.7705L220.187 30.4663ZM216.635 38.2397L215.527 37.2287L215.526 37.23L216.635 38.2397ZM205.313 40.32L203.817 40.2093L203.723 41.4921L204.976 41.7815L205.313 40.32ZM205.868 32.8202L206.304 31.3848L204.511 30.8406L204.372 32.7095L205.868 32.8202ZM211.973 29.3167L213.392 29.8032L213.394 29.7969L211.973 29.3167ZM213.583 17.547L215.081 17.6094L215.082 17.6005L213.583 17.547ZM214.138 2V0.5L212.69 0.5L212.639 1.94649L214.138 2ZM268.738 24.8825L269.994 24.0612L269.549 23.3825H268.738V24.8825ZM262.523 24.8825V23.3825H261.023V24.8825H262.523ZM262.523 40.32V41.82H264.023V40.32H262.523ZM253.587 40.32H252.087V41.82H253.587V40.32ZM253.587 2V0.5L252.087 0.5V2L253.587 2ZM262.523 2L264.023 2V0.5L262.523 0.5V2ZM262.523 17.4922H261.023V18.9922H262.523V17.4922ZM268.96 17.4922V18.9922H269.768L270.213 18.3177L268.96 17.4922ZM279.172 2V0.5H278.364L277.92 1.17448L279.172 2ZM288.662 2L289.899 2.84926L291.512 0.5L288.662 0.5V2ZM275.953 20.5031L274.717 19.6538L274.144 20.4869L274.702 21.3301L275.953 20.5031ZM289.051 40.32V41.82H291.84L290.302 39.4929L289.051 40.32ZM278.839 40.32L277.584 41.1412L278.028 41.82H278.839V40.32ZM293.263 2V0.5L291.763 0.5V2H293.263ZM302.198 2L303.698 2V0.5L302.198 0.5V2ZM302.198 26.9627H300.698V31.4988L303.402 27.857L302.198 26.9627ZM320.734 2V0.5H319.98L319.53 1.10574L320.734 2ZM329.17 2L330.67 2V0.5L329.17 0.5V2ZM329.17 40.32V41.82H330.67V40.32H329.17ZM320.29 40.32H318.79V41.82H320.29V40.32ZM320.29 15.412H321.79V10.8839L319.087 14.5165L320.29 15.412ZM301.754 40.32V41.82H302.507L302.957 41.2155L301.754 40.32ZM293.263 40.32H291.763V41.82H293.263V40.32ZM166.377 7.72605L153.946 7.72605V10.726L166.377 10.726V7.72605ZM152.446 9.22605V40.32L155.446 40.32V9.22605H152.446ZM153.946 38.82H145.066V41.82H153.946V38.82ZM146.566 40.32V9.22605L143.566 9.22605V40.32H146.566ZM145.066 7.72605L132.69 7.72605V10.726L145.066 10.726V7.72605ZM134.19 9.22605V2L131.19 2V9.22605H134.19ZM132.69 3.5L166.377 3.5V0.5L132.69 0.5V3.5ZM164.877 2V9.22605H167.877V2L164.877 2ZM200.603 33.2034V40.32H203.603V33.2034H200.603ZM202.103 38.82L172.023 38.82V41.82L202.103 41.82V38.82ZM173.523 40.32V2L170.523 2V40.32H173.523ZM172.023 3.5L201.381 3.5V0.5L172.023 0.5V3.5ZM199.881 2V9.11656H202.881V2L199.881 2ZM201.381 7.61656L180.958 7.61656V10.6166L201.381 10.6166V7.61656ZM179.458 9.11656V17.4375H182.458V9.11656H179.458ZM180.958 18.9375L198.995 18.9375V15.9375L180.958 15.9375V18.9375ZM197.495 17.4375V24.3351H200.495V17.4375H197.495ZM198.995 22.8351L180.958 22.8351V25.8351L198.995 25.8351V22.8351ZM179.458 24.3351V33.2034H182.458V24.3351H179.458ZM180.958 34.7034L202.103 34.7034V31.7034L180.958 31.7034V34.7034ZM242.496 2V40.32L245.496 40.32V2L242.496 2ZM243.996 38.82L235.116 38.82V41.82L243.996 41.82V38.82ZM236.616 40.32V9.22605L233.616 9.22605V40.32H236.616ZM235.116 7.72605L221.796 7.72605V10.726L235.116 10.726V7.72605ZM220.297 9.174L220.02 17.1664L223.018 17.2705L223.295 9.2781L220.297 9.174ZM220.02 17.1675C219.836 22.5623 219.397 26.8844 218.718 30.162L221.656 30.7705C222.383 27.26 222.832 22.7502 223.018 17.2695L220.02 17.1675ZM218.719 30.1589C218.05 33.3513 216.954 35.6645 215.527 37.2287L217.743 39.2508C219.646 37.1654 220.918 34.2963 221.655 30.7736L218.719 30.1589ZM215.526 37.23C214.244 38.6377 212.393 39.4221 209.753 39.4221V42.4221C213.033 42.4221 215.77 41.4183 217.744 39.2495L215.526 37.23ZM209.753 39.4221C208.685 39.4221 207.325 39.2449 205.651 38.8584L204.976 41.7815C206.78 42.1979 208.38 42.4221 209.753 42.4221V39.4221ZM206.809 40.4307L207.364 32.9309L204.372 32.7095L203.817 40.2093L206.809 40.4307ZM205.433 34.2555C206.077 34.4512 206.764 34.5392 207.478 34.5392V31.5392C207.008 31.5392 206.621 31.4811 206.304 31.3848L205.433 34.2555ZM207.478 34.5392C208.862 34.5392 210.121 34.1304 211.168 33.2638C212.192 32.4161 212.907 31.2171 213.392 29.8032L210.554 28.8301C210.188 29.8978 209.729 30.5601 209.254 30.9532C208.802 31.3275 208.24 31.5392 207.478 31.5392V34.5392ZM213.394 29.7969C214.317 27.0676 214.858 22.9672 215.081 17.6094L212.084 17.4845C211.863 22.7833 211.332 26.5294 210.552 28.8364L213.394 29.7969ZM215.082 17.6005L215.637 2.05351L212.639 1.94649L212.084 17.4934L215.082 17.6005ZM214.138 3.5L243.996 3.5V0.5L214.138 0.5V3.5ZM268.738 23.3825H262.523V26.3825H268.738V23.3825ZM261.023 24.8825V40.32H264.023V24.8825H261.023ZM262.523 38.82H253.587V41.82H262.523V38.82ZM255.087 40.32V2L252.087 2V40.32H255.087ZM253.587 3.5L262.523 3.5V0.5L253.587 0.5V3.5ZM261.023 2V17.4922H264.023V2L261.023 2ZM262.523 18.9922H268.96V15.9922H262.523V18.9922ZM270.213 18.3177L280.424 2.82552L277.92 1.17448L267.708 16.6667L270.213 18.3177ZM279.172 3.5L288.662 3.5V0.5L279.172 0.5V3.5ZM287.426 1.15074L274.717 19.6538L277.19 21.3523L289.899 2.84926L287.426 1.15074ZM274.702 21.3301L287.799 41.147L290.302 39.4929L277.205 19.676L274.702 21.3301ZM289.051 38.82L278.839 38.82V41.82L289.051 41.82V38.82ZM280.094 39.4987L269.994 24.0612L267.483 25.7038L277.584 41.1412L280.094 39.4987ZM293.263 3.5L302.198 3.5V0.5L293.263 0.5V3.5ZM300.698 2V26.9627H303.698V2L300.698 2ZM303.402 27.857L321.938 2.89426L319.53 1.10574L300.993 26.0685L303.402 27.857ZM320.734 3.5L329.17 3.5V0.5L320.734 0.5V3.5ZM327.67 2V40.32H330.67V2L327.67 2ZM329.17 38.82H320.29V41.82H329.17V38.82ZM321.79 40.32V15.412H318.79V40.32H321.79ZM319.087 14.5165L300.55 39.4244L302.957 41.2155L321.494 16.3075L319.087 14.5165ZM301.754 38.82H293.263V41.82H301.754V38.82ZM294.763 40.32V2L291.763 2V40.32H294.763Z" fill="white" mask="url(#path-3-outside-2_80_212)"/>
<mask id="path-5-outside-3_80_212" maskUnits="userSpaceOnUse" x="349.458" y="0" width="118" height="42" fill="black">
<rect fill="white" x="349.458" width="118" height="42"/>
<path d="M363.889 9.22605L351.458 9.22605V2L385.311 2V9.22605L372.88 9.22605V40.32H363.889V9.22605Z"/>
<path d="M425.779 2V40.32L416.788 40.32V24.6088L399.14 24.6088V40.32H390.149V2L399.14 2V17.109L416.788 17.109V2L425.779 2Z"/>
<path d="M465.05 33.2034V40.32L434.97 40.32V2L464.329 2V9.11656L443.906 9.11656V17.4375L461.942 17.4375V24.3351L443.906 24.3351V33.2034H465.05Z"/>
</mask>
<path d="M363.889 9.22605L365.389 9.22605V7.72605L363.889 7.72605V9.22605ZM351.458 9.22605H349.958V10.726H351.458V9.22605ZM351.458 2V0.5L349.958 0.5V2L351.458 2ZM385.311 2L386.811 2V0.5L385.311 0.5V2ZM385.311 9.22605V10.726H386.811V9.22605H385.311ZM372.88 9.22605V7.72605H371.38V9.22605H372.88ZM372.88 40.32V41.82L374.38 41.82V40.32L372.88 40.32ZM363.889 40.32H362.389V41.82H363.889V40.32ZM425.779 2H427.279V0.5L425.779 0.5V2ZM425.779 40.32V41.82H427.279V40.32H425.779ZM416.788 40.32H415.288V41.82H416.788V40.32ZM416.788 24.6088H418.288V23.1088H416.788V24.6088ZM399.14 24.6088V23.1088H397.64V24.6088H399.14ZM399.14 40.32V41.82H400.64V40.32H399.14ZM390.149 40.32H388.649V41.82H390.149V40.32ZM390.149 2V0.5L388.649 0.5V2L390.149 2ZM399.14 2L400.64 2V0.5L399.14 0.5V2ZM399.14 17.109H397.64V18.609H399.14V17.109ZM416.788 17.109V18.609H418.288V17.109H416.788ZM416.788 2V0.5L415.288 0.5V2L416.788 2ZM465.05 33.2034H466.55V31.7034H465.05V33.2034ZM465.05 40.32V41.82H466.55V40.32H465.05ZM434.97 40.32H433.47V41.82H434.97V40.32ZM434.97 2V0.5L433.47 0.5V2H434.97ZM464.329 2H465.829V0.5L464.329 0.5V2ZM464.329 9.11656V10.6166H465.829V9.11656H464.329ZM443.906 9.11656V7.61656L442.406 7.61656V9.11656H443.906ZM443.906 17.4375H442.406V18.9375H443.906V17.4375ZM461.942 17.4375H463.442V15.9375H461.942V17.4375ZM461.942 24.3351V25.8351H463.442V24.3351H461.942ZM443.906 24.3351V22.8351H442.406V24.3351H443.906ZM443.906 33.2034H442.406V34.7034H443.906V33.2034ZM363.889 7.72605L351.458 7.72605V10.726L363.889 10.726V7.72605ZM352.958 9.22605V2L349.958 2V9.22605H352.958ZM351.458 3.5L385.311 3.5V0.5L351.458 0.5V3.5ZM383.811 2V9.22605H386.811V2L383.811 2ZM385.311 7.72605L372.88 7.72605V10.726L385.311 10.726V7.72605ZM371.38 9.22605V40.32L374.38 40.32V9.22605H371.38ZM372.88 38.82H363.889V41.82H372.88V38.82ZM365.389 40.32V9.22605L362.389 9.22605V40.32H365.389ZM424.279 2V40.32H427.279V2L424.279 2ZM425.779 38.82L416.788 38.82V41.82L425.779 41.82V38.82ZM418.288 40.32V24.6088H415.288V40.32L418.288 40.32ZM416.788 23.1088L399.14 23.1088V26.1088L416.788 26.1088V23.1088ZM397.64 24.6088V40.32H400.64V24.6088H397.64ZM399.14 38.82H390.149V41.82H399.14V38.82ZM391.649 40.32V2L388.649 2V40.32H391.649ZM390.149 3.5L399.14 3.5V0.5L390.149 0.5V3.5ZM397.64 2V17.109H400.64V2L397.64 2ZM399.14 18.609L416.788 18.609V15.609L399.14 15.609V18.609ZM418.288 17.109V2L415.288 2V17.109H418.288ZM416.788 3.5L425.779 3.5V0.5L416.788 0.5V3.5ZM463.55 33.2034V40.32H466.55V33.2034H463.55ZM465.05 38.82L434.97 38.82V41.82L465.05 41.82V38.82ZM436.47 40.32V2L433.47 2V40.32H436.47ZM434.97 3.5L464.329 3.5V0.5L434.97 0.5V3.5ZM462.829 2V9.11656H465.829V2L462.829 2ZM464.329 7.61656L443.906 7.61656V10.6166L464.329 10.6166V7.61656ZM442.406 9.11656V17.4375H445.406V9.11656H442.406ZM443.906 18.9375L461.942 18.9375V15.9375L443.906 15.9375V18.9375ZM460.442 17.4375V24.3351H463.442V17.4375H460.442ZM461.942 22.8351L443.906 22.8351V25.8351L461.942 25.8351V22.8351ZM442.406 24.3351V33.2034H445.406V24.3351H442.406ZM443.906 34.7034L465.05 34.7034V31.7034L443.906 31.7034V34.7034Z" fill="#BE0101" mask="url(#path-5-outside-3_80_212)"/>
<mask id="path-7-outside-4_80_212" maskUnits="userSpaceOnUse" x="482.147" y="0" width="200" height="43" fill="black">
<rect fill="white" x="482.147" width="200" height="43"/>
<path d="M517.835 9.22605L505.403 9.22605V40.32H496.524V9.22605L484.147 9.22605V2L517.835 2V9.22605Z"/>
<path d="M553.56 33.2034V40.32L523.48 40.32V2L552.839 2V9.11656L532.415 9.11656V17.4375L550.452 17.4375V24.3351L532.415 24.3351V33.2034L553.56 33.2034Z"/>
<path d="M595.453 2V40.32L586.573 40.32V9.22605L573.254 9.22605L572.976 17.2185C572.791 22.6563 572.347 27.0722 571.644 30.4663C570.941 33.8238 569.757 36.415 568.093 38.2397C566.465 40.028 564.171 40.9221 561.211 40.9221C559.99 40.9221 558.51 40.7214 556.771 40.32L557.326 32.8202C557.807 32.9662 558.343 33.0392 558.935 33.0392C561.081 33.0392 562.58 31.7983 563.431 29.3167C564.282 26.7985 564.818 22.8753 565.04 17.547L565.595 2L595.453 2Z"/>
<path d="M620.196 24.8825H613.98V40.32H605.045V2L613.98 2V17.4922H620.418L630.63 2L640.12 2L627.411 20.5031L640.508 40.32L630.297 40.32L620.196 24.8825Z"/>
<path d="M644.72 2L653.655 2V26.9627L672.192 2L680.627 2V40.32H671.748V15.412L653.211 40.32H644.72V2Z"/>
</mask>
<path d="M517.835 9.22605V10.726H519.335V9.22605H517.835ZM505.403 9.22605V7.72605H503.903V9.22605H505.403ZM505.403 40.32V41.82L506.903 41.82V40.32L505.403 40.32ZM496.524 40.32H495.024V41.82H496.524V40.32ZM496.524 9.22605L498.024 9.22605V7.72605L496.524 7.72605V9.22605ZM484.147 9.22605H482.647V10.726H484.147V9.22605ZM484.147 2V0.5L482.647 0.5V2L484.147 2ZM517.835 2L519.335 2V0.5L517.835 0.5V2ZM553.56 33.2034H555.06V31.7034H553.56V33.2034ZM553.56 40.32V41.82H555.06V40.32H553.56ZM523.48 40.32H521.98V41.82H523.48V40.32ZM523.48 2V0.5L521.98 0.5V2H523.48ZM552.839 2H554.339V0.5L552.839 0.5V2ZM552.839 9.11656V10.6166H554.339V9.11656H552.839ZM532.415 9.11656V7.61656L530.915 7.61656V9.11656H532.415ZM532.415 17.4375H530.915V18.9375H532.415V17.4375ZM550.452 17.4375H551.952V15.9375H550.452V17.4375ZM550.452 24.3351V25.8351H551.952V24.3351H550.452ZM532.415 24.3351V22.8351H530.915V24.3351H532.415ZM532.415 33.2034H530.915V34.7034H532.415V33.2034ZM595.453 2L596.953 2V0.5L595.453 0.5V2ZM595.453 40.32V41.82H596.953V40.32H595.453ZM586.573 40.32H585.073V41.82H586.573V40.32ZM586.573 9.22605H588.073V7.72605H586.573V9.22605ZM573.254 9.22605V7.72605H571.805L571.755 9.174L573.254 9.22605ZM572.976 17.2185L571.477 17.1664L571.477 17.1675L572.976 17.2185ZM571.644 30.4663L573.113 30.7736L573.113 30.7705L571.644 30.4663ZM568.093 38.2397L566.984 37.2287L566.983 37.23L568.093 38.2397ZM556.771 40.32L555.275 40.2093L555.18 41.4921L556.433 41.7815L556.771 40.32ZM557.326 32.8202L557.762 31.3848L555.968 30.8406L555.83 32.7095L557.326 32.8202ZM563.431 29.3167L564.85 29.8032L564.852 29.7969L563.431 29.3167ZM565.04 17.547L566.539 17.6094L566.539 17.6005L565.04 17.547ZM565.595 2V0.5L564.148 0.5L564.096 1.94649L565.595 2ZM620.196 24.8825L621.451 24.0612L621.007 23.3825H620.196V24.8825ZM613.98 24.8825V23.3825H612.48V24.8825H613.98ZM613.98 40.32V41.82H615.48V40.32H613.98ZM605.045 40.32H603.545V41.82H605.045V40.32ZM605.045 2V0.5L603.545 0.5V2L605.045 2ZM613.98 2L615.48 2V0.5L613.98 0.5V2ZM613.98 17.4922H612.48V18.9922H613.98V17.4922ZM620.418 17.4922V18.9922H621.226L621.67 18.3177L620.418 17.4922ZM630.63 2V0.5H629.822L629.377 1.17448L630.63 2ZM640.12 2L641.356 2.84926L642.97 0.5L640.12 0.5V2ZM627.411 20.5031L626.174 19.6538L625.602 20.4869L626.159 21.3301L627.411 20.5031ZM640.508 40.32V41.82H643.298L641.76 39.4929L640.508 40.32ZM630.297 40.32L629.041 41.1412L629.485 41.82H630.297V40.32ZM644.72 2V0.5L643.22 0.5V2H644.72ZM653.655 2L655.155 2V0.5L653.655 0.5V2ZM653.655 26.9627H652.155V31.4988L654.86 27.857L653.655 26.9627ZM672.192 2V0.5H671.437L670.987 1.10574L672.192 2ZM680.627 2L682.127 2V0.5L680.627 0.5V2ZM680.627 40.32V41.82H682.127V40.32H680.627ZM671.748 40.32H670.248V41.82H671.748V40.32ZM671.748 15.412H673.248V10.8839L670.544 14.5165L671.748 15.412ZM653.211 40.32V41.82H653.965L654.415 41.2155L653.211 40.32ZM644.72 40.32H643.22V41.82H644.72V40.32ZM517.835 7.72605L505.403 7.72605V10.726L517.835 10.726V7.72605ZM503.903 9.22605V40.32L506.903 40.32V9.22605H503.903ZM505.403 38.82H496.524V41.82H505.403V38.82ZM498.024 40.32V9.22605L495.024 9.22605V40.32H498.024ZM496.524 7.72605L484.147 7.72605V10.726L496.524 10.726V7.72605ZM485.647 9.22605V2L482.647 2V9.22605H485.647ZM484.147 3.5L517.835 3.5V0.5L484.147 0.5V3.5ZM516.335 2V9.22605H519.335V2L516.335 2ZM552.06 33.2034V40.32H555.06V33.2034H552.06ZM553.56 38.82L523.48 38.82V41.82L553.56 41.82V38.82ZM524.98 40.32V2L521.98 2V40.32H524.98ZM523.48 3.5L552.839 3.5V0.5L523.48 0.5V3.5ZM551.339 2V9.11656H554.339V2L551.339 2ZM552.839 7.61656L532.415 7.61656V10.6166L552.839 10.6166V7.61656ZM530.915 9.11656V17.4375H533.915V9.11656H530.915ZM532.415 18.9375L550.452 18.9375V15.9375L532.415 15.9375V18.9375ZM548.952 17.4375V24.3351H551.952V17.4375H548.952ZM550.452 22.8351L532.415 22.8351V25.8351L550.452 25.8351V22.8351ZM530.915 24.3351V33.2034H533.915V24.3351H530.915ZM532.415 34.7034L553.56 34.7034V31.7034L532.415 31.7034V34.7034ZM593.953 2V40.32L596.953 40.32V2L593.953 2ZM595.453 38.82L586.573 38.82V41.82L595.453 41.82V38.82ZM588.073 40.32V9.22605L585.073 9.22605V40.32H588.073ZM586.573 7.72605L573.254 7.72605V10.726L586.573 10.726V7.72605ZM571.755 9.174L571.477 17.1664L574.475 17.2705L574.753 9.2781L571.755 9.174ZM571.477 17.1675C571.294 22.5623 570.854 26.8844 570.176 30.162L573.113 30.7705C573.84 27.26 574.289 22.7502 574.476 17.2695L571.477 17.1675ZM570.176 30.1589C569.508 33.3513 568.412 35.6645 566.984 37.2287L569.201 39.2508C571.103 37.1654 572.375 34.2963 573.113 30.7736L570.176 30.1589ZM566.983 37.23C565.702 38.6377 563.851 39.4221 561.211 39.4221V42.4221C564.491 42.4221 567.227 41.4183 569.202 39.2495L566.983 37.23ZM561.211 39.4221C560.142 39.4221 558.782 39.2449 557.108 38.8584L556.433 41.7815C558.237 42.1979 559.837 42.4221 561.211 42.4221V39.4221ZM558.267 40.4307L558.822 32.9309L555.83 32.7095L555.275 40.2093L558.267 40.4307ZM556.89 34.2555C557.535 34.4512 558.221 34.5392 558.935 34.5392V31.5392C558.465 31.5392 558.079 31.4811 557.762 31.3848L556.89 34.2555ZM558.935 34.5392C560.319 34.5392 561.579 34.1304 562.625 33.2638C563.649 32.4161 564.365 31.2171 564.85 29.8032L562.012 28.8301C561.646 29.8978 561.187 30.5601 560.712 30.9532C560.26 31.3275 559.697 31.5392 558.935 31.5392V34.5392ZM564.852 29.7969C565.774 27.0676 566.316 22.9672 566.539 17.6094L563.541 17.4845C563.321 22.7833 562.789 26.5294 562.01 28.8364L564.852 29.7969ZM566.539 17.6005L567.094 2.05351L564.096 1.94649L563.541 17.4934L566.539 17.6005ZM565.595 3.5L595.453 3.5V0.5L565.595 0.5V3.5ZM620.196 23.3825H613.98V26.3825H620.196V23.3825ZM612.48 24.8825V40.32H615.48V24.8825H612.48ZM613.98 38.82H605.045V41.82H613.98V38.82ZM606.545 40.32V2L603.545 2V40.32H606.545ZM605.045 3.5L613.98 3.5V0.5L605.045 0.5V3.5ZM612.48 2V17.4922H615.48V2L612.48 2ZM613.98 18.9922H620.418V15.9922H613.98V18.9922ZM621.67 18.3177L631.882 2.82552L629.377 1.17448L619.165 16.6667L621.67 18.3177ZM630.63 3.5L640.12 3.5V0.5L630.63 0.5V3.5ZM638.883 1.15074L626.174 19.6538L628.647 21.3523L641.356 2.84926L638.883 1.15074ZM626.159 21.3301L639.257 41.147L641.76 39.4929L628.662 19.676L626.159 21.3301ZM640.508 38.82L630.297 38.82V41.82L640.508 41.82V38.82ZM631.552 39.4987L621.451 24.0612L618.941 25.7038L629.041 41.1412L631.552 39.4987ZM644.72 3.5L653.655 3.5V0.5L644.72 0.5V3.5ZM652.155 2V26.9627H655.155V2L652.155 2ZM654.86 27.857L673.396 2.89426L670.987 1.10574L652.451 26.0685L654.86 27.857ZM672.192 3.5L680.627 3.5V0.5L672.192 0.5V3.5ZM679.127 2V40.32H682.127V2L679.127 2ZM680.627 38.82H671.748V41.82H680.627V38.82ZM673.248 40.32V15.412H670.248V40.32H673.248ZM670.544 14.5165L652.008 39.4244L654.415 41.2155L672.951 16.3075L670.544 14.5165ZM653.211 38.82H644.72V41.82H653.211V38.82ZM646.22 40.32V2L643.22 2V40.32H646.22Z" fill="white" mask="url(#path-7-outside-4_80_212)"/>
<mask id="path-9-outside-5_80_212" maskUnits="userSpaceOnUse" x="700.915" y="0" width="118" height="42" fill="black">
<rect fill="white" x="700.915" width="118" height="42"/>
<path d="M715.347 9.22605L702.915 9.22605V2L736.769 2V9.22605L724.337 9.22605V40.32H715.347V9.22605Z"/>
<path d="M777.236 2V40.32L768.246 40.32V24.6088L750.597 24.6088V40.32H741.606V2L750.597 2V17.109L768.246 17.109V2L777.236 2Z"/>
<path d="M816.508 33.2034V40.32L786.428 40.32V2L815.786 2V9.11656L795.363 9.11656V17.4375L813.4 17.4375V24.3351L795.363 24.3351V33.2034H816.508Z"/>
</mask>
<path d="M715.347 9.22605L716.847 9.22605V7.72605L715.347 7.72605V9.22605ZM702.915 9.22605H701.415V10.726H702.915V9.22605ZM702.915 2V0.5L701.415 0.5V2L702.915 2ZM736.769 2L738.269 2V0.5L736.769 0.5V2ZM736.769 9.22605V10.726H738.269V9.22605H736.769ZM724.337 9.22605V7.72605H722.837V9.22605H724.337ZM724.337 40.32V41.82L725.837 41.82V40.32L724.337 40.32ZM715.347 40.32H713.847V41.82H715.347V40.32ZM777.236 2H778.736V0.5L777.236 0.5V2ZM777.236 40.32V41.82H778.736V40.32H777.236ZM768.246 40.32H766.746V41.82H768.246V40.32ZM768.246 24.6088H769.746V23.1088H768.246V24.6088ZM750.597 24.6088V23.1088H749.097V24.6088H750.597ZM750.597 40.32V41.82H752.097V40.32H750.597ZM741.606 40.32H740.106V41.82H741.606V40.32ZM741.606 2V0.5L740.106 0.5V2L741.606 2ZM750.597 2L752.097 2V0.5L750.597 0.5V2ZM750.597 17.109H749.097V18.609H750.597V17.109ZM768.246 17.109V18.609H769.746V17.109H768.246ZM768.246 2V0.5L766.746 0.5V2L768.246 2ZM816.508 33.2034H818.008V31.7034H816.508V33.2034ZM816.508 40.32V41.82H818.008V40.32H816.508ZM786.428 40.32H784.928V41.82H786.428V40.32ZM786.428 2V0.5L784.928 0.5V2H786.428ZM815.786 2H817.286V0.5L815.786 0.5V2ZM815.786 9.11656V10.6166H817.286V9.11656H815.786ZM795.363 9.11656V7.61656L793.863 7.61656V9.11656H795.363ZM795.363 17.4375H793.863V18.9375H795.363V17.4375ZM813.4 17.4375H814.9V15.9375H813.4V17.4375ZM813.4 24.3351V25.8351H814.9V24.3351H813.4ZM795.363 24.3351V22.8351H793.863V24.3351H795.363ZM795.363 33.2034H793.863V34.7034H795.363V33.2034ZM715.347 7.72605L702.915 7.72605V10.726L715.347 10.726V7.72605ZM704.415 9.22605V2L701.415 2V9.22605H704.415ZM702.915 3.5L736.769 3.5V0.5L702.915 0.5V3.5ZM735.269 2V9.22605H738.269V2L735.269 2ZM736.769 7.72605L724.337 7.72605V10.726L736.769 10.726V7.72605ZM722.837 9.22605V40.32L725.837 40.32V9.22605H722.837ZM724.337 38.82H715.347V41.82H724.337V38.82ZM716.847 40.32V9.22605L713.847 9.22605V40.32H716.847ZM775.736 2V40.32H778.736V2L775.736 2ZM777.236 38.82L768.246 38.82V41.82L777.236 41.82V38.82ZM769.746 40.32V24.6088H766.746V40.32L769.746 40.32ZM768.246 23.1088L750.597 23.1088V26.1088L768.246 26.1088V23.1088ZM749.097 24.6088V40.32H752.097V24.6088H749.097ZM750.597 38.82H741.606V41.82H750.597V38.82ZM743.106 40.32V2L740.106 2V40.32H743.106ZM741.606 3.5L750.597 3.5V0.5L741.606 0.5V3.5ZM749.097 2V17.109H752.097V2L749.097 2ZM750.597 18.609L768.246 18.609V15.609L750.597 15.609V18.609ZM769.746 17.109V2L766.746 2V17.109H769.746ZM768.246 3.5L777.236 3.5V0.5L768.246 0.5V3.5ZM815.008 33.2034V40.32H818.008V33.2034H815.008ZM816.508 38.82L786.428 38.82V41.82L816.508 41.82V38.82ZM787.928 40.32V2L784.928 2V40.32H787.928ZM786.428 3.5L815.786 3.5V0.5L786.428 0.5V3.5ZM814.286 2V9.11656H817.286V2L814.286 2ZM815.786 7.61656L795.363 7.61656V10.6166L815.786 10.6166V7.61656ZM793.863 9.11656V17.4375H796.863V9.11656H793.863ZM795.363 18.9375L813.4 18.9375V15.9375L795.363 15.9375V18.9375ZM811.9 17.4375V24.3351H814.9V17.4375H811.9ZM813.4 22.8351L795.363 22.8351V25.8351L813.4 25.8351V22.8351ZM793.863 24.3351V33.2034H796.863V24.3351H793.863ZM795.363 34.7034L816.508 34.7034V31.7034L795.363 31.7034V34.7034Z" fill="#BE0101" mask="url(#path-9-outside-5_80_212)"/>
<mask id="path-11-outside-6_80_212" maskUnits="userSpaceOnUse" x="833.605" y="0" width="200" height="43" fill="black">
<rect fill="white" x="833.605" width="200" height="43"/>
<path d="M869.292 9.22605L856.861 9.22605V40.32H847.981V9.22605L835.605 9.22605V2L869.292 2V9.22605Z"/>
<path d="M905.018 33.2034V40.32L874.938 40.32V2L904.296 2V9.11656L883.873 9.11656V17.4375L901.91 17.4375V24.3351L883.873 24.3351V33.2034L905.018 33.2034Z"/>
<path d="M946.911 2V40.32L938.031 40.32V9.22605L924.711 9.22605L924.434 17.2185C924.249 22.6563 923.805 27.0722 923.102 30.4663C922.399 33.8238 921.215 36.415 919.55 38.2397C917.922 40.028 915.628 40.9221 912.668 40.9221C911.447 40.9221 909.967 40.7214 908.228 40.32L908.783 32.8202C909.264 32.9662 909.801 33.0392 910.393 33.0392C912.539 33.0392 914.037 31.7983 914.888 29.3167C915.739 26.7985 916.276 22.8753 916.498 17.547L917.053 2L946.911 2Z"/>
<path d="M971.653 24.8825H965.438V40.32H956.502V2L965.438 2V17.4922H971.875L982.087 2L991.577 2L978.868 20.5031L991.966 40.32L981.754 40.32L971.653 24.8825Z"/>
<path d="M996.178 2L1005.11 2V26.9627L1023.65 2L1032.09 2V40.32H1023.21V15.412L1004.67 40.32H996.178V2Z"/>
</mask>
<path d="M869.292 9.22605V10.726H870.792V9.22605H869.292ZM856.861 9.22605V7.72605H855.361V9.22605H856.861ZM856.861 40.32V41.82L858.361 41.82V40.32L856.861 40.32ZM847.981 40.32H846.481V41.82H847.981V40.32ZM847.981 9.22605L849.481 9.22605V7.72605L847.981 7.72605V9.22605ZM835.605 9.22605H834.105V10.726H835.605V9.22605ZM835.605 2V0.5L834.105 0.5V2L835.605 2ZM869.292 2L870.792 2V0.5L869.292 0.5V2ZM905.018 33.2034H906.518V31.7034H905.018V33.2034ZM905.018 40.32V41.82H906.518V40.32H905.018ZM874.938 40.32H873.438V41.82H874.938V40.32ZM874.938 2V0.5L873.438 0.5V2H874.938ZM904.296 2H905.796V0.5L904.296 0.5V2ZM904.296 9.11656V10.6166H905.796V9.11656H904.296ZM883.873 9.11656V7.61656L882.373 7.61656V9.11656H883.873ZM883.873 17.4375H882.373V18.9375H883.873V17.4375ZM901.91 17.4375H903.41V15.9375H901.91V17.4375ZM901.91 24.3351V25.8351H903.41V24.3351H901.91ZM883.873 24.3351V22.8351H882.373V24.3351H883.873ZM883.873 33.2034H882.373V34.7034H883.873V33.2034ZM946.911 2L948.411 2V0.5L946.911 0.5V2ZM946.911 40.32V41.82H948.411V40.32H946.911ZM938.031 40.32H936.531V41.82H938.031V40.32ZM938.031 9.22605H939.531V7.72605H938.031V9.22605ZM924.711 9.22605V7.72605H923.263L923.212 9.174L924.711 9.22605ZM924.434 17.2185L922.935 17.1664L922.935 17.1675L924.434 17.2185ZM923.102 30.4663L924.57 30.7736L924.571 30.7705L923.102 30.4663ZM919.55 38.2397L918.442 37.2287L918.441 37.23L919.55 38.2397ZM908.228 40.32L906.733 40.2093L906.638 41.4921L907.891 41.7815L908.228 40.32ZM908.783 32.8202L909.219 31.3848L907.426 30.8406L907.287 32.7095L908.783 32.8202ZM914.888 29.3167L916.307 29.8032L916.309 29.7969L914.888 29.3167ZM916.498 17.547L917.996 17.6094L917.997 17.6005L916.498 17.547ZM917.053 2V0.5L915.605 0.5L915.554 1.94649L917.053 2ZM971.653 24.8825L972.909 24.0612L972.465 23.3825H971.653V24.8825ZM965.438 24.8825V23.3825H963.938V24.8825H965.438ZM965.438 40.32V41.82H966.938V40.32H965.438ZM956.502 40.32H955.002V41.82H956.502V40.32ZM956.502 2V0.5L955.002 0.5V2L956.502 2ZM965.438 2L966.938 2V0.5L965.438 0.5V2ZM965.438 17.4922H963.938V18.9922H965.438V17.4922ZM971.875 17.4922V18.9922H972.683L973.128 18.3177L971.875 17.4922ZM982.087 2V0.5H981.279L980.835 1.17448L982.087 2ZM991.577 2L992.814 2.84926L994.427 0.5L991.577 0.5V2ZM978.868 20.5031L977.632 19.6538L977.059 20.4869L977.617 21.3301L978.868 20.5031ZM991.966 40.32V41.82H994.755L993.217 39.4929L991.966 40.32ZM981.754 40.32L980.499 41.1412L980.943 41.82H981.754V40.32ZM996.178 2V0.5L994.678 0.5V2H996.178ZM1005.11 2L1006.61 2V0.5L1005.11 0.5V2ZM1005.11 26.9627H1003.61V31.4988L1006.32 27.857L1005.11 26.9627ZM1023.65 2V0.5H1022.89L1022.44 1.10574L1023.65 2ZM1032.09 2L1033.59 2V0.5L1032.09 0.5V2ZM1032.09 40.32V41.82H1033.59V40.32H1032.09ZM1023.21 40.32H1021.71V41.82H1023.21V40.32ZM1023.21 15.412H1024.71V10.8839L1022 14.5165L1023.21 15.412ZM1004.67 40.32V41.82H1005.42L1005.87 41.2155L1004.67 40.32ZM996.178 40.32H994.678V41.82H996.178V40.32ZM869.292 7.72605L856.861 7.72605V10.726L869.292 10.726V7.72605ZM855.361 9.22605V40.32L858.361 40.32V9.22605H855.361ZM856.861 38.82H847.981V41.82H856.861V38.82ZM849.481 40.32V9.22605L846.481 9.22605V40.32H849.481ZM847.981 7.72605L835.605 7.72605V10.726L847.981 10.726V7.72605ZM837.105 9.22605V2L834.105 2V9.22605H837.105ZM835.605 3.5L869.292 3.5V0.5L835.605 0.5V3.5ZM867.792 2V9.22605H870.792V2L867.792 2ZM903.518 33.2034V40.32H906.518V33.2034H903.518ZM905.018 38.82L874.938 38.82V41.82L905.018 41.82V38.82ZM876.438 40.32V2L873.438 2V40.32H876.438ZM874.938 3.5L904.296 3.5V0.5L874.938 0.5V3.5ZM902.796 2V9.11656H905.796V2L902.796 2ZM904.296 7.61656L883.873 7.61656V10.6166L904.296 10.6166V7.61656ZM882.373 9.11656V17.4375H885.373V9.11656H882.373ZM883.873 18.9375L901.91 18.9375V15.9375L883.873 15.9375V18.9375ZM900.41 17.4375V24.3351H903.41V17.4375H900.41ZM901.91 22.8351L883.873 22.8351V25.8351L901.91 25.8351V22.8351ZM882.373 24.3351V33.2034H885.373V24.3351H882.373ZM883.873 34.7034L905.018 34.7034V31.7034L883.873 31.7034V34.7034ZM945.411 2V40.32L948.411 40.32V2L945.411 2ZM946.911 38.82L938.031 38.82V41.82L946.911 41.82V38.82ZM939.531 40.32V9.22605L936.531 9.22605V40.32H939.531ZM938.031 7.72605L924.711 7.72605V10.726L938.031 10.726V7.72605ZM923.212 9.174L922.935 17.1664L925.933 17.2705L926.211 9.2781L923.212 9.174ZM922.935 17.1675C922.751 22.5623 922.312 26.8844 921.633 30.162L924.571 30.7705C925.298 27.26 925.747 22.7502 925.933 17.2695L922.935 17.1675ZM921.634 30.1589C920.965 33.3513 919.869 35.6645 918.442 37.2287L920.658 39.2508C922.561 37.1654 923.833 34.2963 924.57 30.7736L921.634 30.1589ZM918.441 37.23C917.159 38.6377 915.308 39.4221 912.668 39.4221V42.4221C915.948 42.4221 918.685 41.4183 920.659 39.2495L918.441 37.23ZM912.668 39.4221C911.6 39.4221 910.24 39.2449 908.566 38.8584L907.891 41.7815C909.695 42.1979 911.295 42.4221 912.668 42.4221V39.4221ZM909.724 40.4307L910.279 32.9309L907.287 32.7095L906.733 40.2093L909.724 40.4307ZM908.348 34.2555C908.992 34.4512 909.679 34.5392 910.393 34.5392V31.5392C909.923 31.5392 909.536 31.4811 909.219 31.3848L908.348 34.2555ZM910.393 34.5392C911.777 34.5392 913.036 34.1304 914.083 33.2638C915.107 32.4161 915.822 31.2171 916.307 29.8032L913.469 28.8301C913.103 29.8978 912.644 30.5601 912.169 30.9532C911.717 31.3275 911.155 31.5392 910.393 31.5392V34.5392ZM916.309 29.7969C917.232 27.0676 917.773 22.9672 917.996 17.6094L914.999 17.4845C914.778 22.7833 914.247 26.5294 913.467 28.8364L916.309 29.7969ZM917.997 17.6005L918.552 2.05351L915.554 1.94649L914.999 17.4934L917.997 17.6005ZM917.053 3.5L946.911 3.5V0.5L917.053 0.5V3.5ZM971.653 23.3825H965.438V26.3825H971.653V23.3825ZM963.938 24.8825V40.32H966.938V24.8825H963.938ZM965.438 38.82H956.502V41.82H965.438V38.82ZM958.002 40.32V2L955.002 2V40.32H958.002ZM956.502 3.5L965.438 3.5V0.5L956.502 0.5V3.5ZM963.938 2V17.4922H966.938V2L963.938 2ZM965.438 18.9922H971.875V15.9922H965.438V18.9922ZM973.128 18.3177L983.339 2.82552L980.835 1.17448L970.623 16.6667L973.128 18.3177ZM982.087 3.5L991.577 3.5V0.5L982.087 0.5V3.5ZM990.341 1.15074L977.632 19.6538L980.105 21.3523L992.814 2.84926L990.341 1.15074ZM977.617 21.3301L990.714 41.147L993.217 39.4929L980.12 19.676L977.617 21.3301ZM991.966 38.82L981.754 38.82V41.82L991.966 41.82V38.82ZM983.009 39.4987L972.909 24.0612L970.398 25.7038L980.499 41.1412L983.009 39.4987ZM996.178 3.5L1005.11 3.5V0.5L996.178 0.5V3.5ZM1003.61 2V26.9627H1006.61V2L1003.61 2ZM1006.32 27.857L1024.85 2.89426L1022.44 1.10574L1003.91 26.0685L1006.32 27.857ZM1023.65 3.5L1032.09 3.5V0.5L1023.65 0.5V3.5ZM1030.59 2V40.32H1033.59V2L1030.59 2ZM1032.09 38.82H1023.21V41.82H1032.09V38.82ZM1024.71 40.32V15.412H1021.71V40.32H1024.71ZM1022 14.5165L1003.47 39.4244L1005.87 41.2155L1024.41 16.3075L1022 14.5165ZM1004.67 38.82H996.178V41.82H1004.67V38.82ZM997.678 40.32V2L994.678 2V40.32H997.678Z" fill="white" mask="url(#path-11-outside-6_80_212)"/>
<mask id="path-13-outside-7_80_212" maskUnits="userSpaceOnUse" x="1052.37" y="0" width="118" height="42" fill="black">
<rect fill="white" x="1052.37" width="118" height="42"/>
<path d="M1066.8 9.22605L1054.37 9.22605V2L1088.23 2V9.22605L1075.79 9.22605V40.32H1066.8V9.22605Z"/>
<path d="M1128.69 2V40.32L1119.7 40.32V24.6088L1102.05 24.6088V40.32H1093.06V2L1102.05 2V17.109L1119.7 17.109V2L1128.69 2Z"/>
<path d="M1167.97 33.2034V40.32L1137.89 40.32V2L1167.24 2V9.11656L1146.82 9.11656V17.4375L1164.86 17.4375V24.3351L1146.82 24.3351V33.2034H1167.97Z"/>
</mask>
<path d="M1066.8 9.22605L1068.3 9.22605V7.72605L1066.8 7.72605V9.22605ZM1054.37 9.22605H1052.87V10.726H1054.37V9.22605ZM1054.37 2V0.5L1052.87 0.5V2L1054.37 2ZM1088.23 2L1089.73 2V0.5L1088.23 0.5V2ZM1088.23 9.22605V10.726H1089.73V9.22605H1088.23ZM1075.79 9.22605V7.72605H1074.29V9.22605H1075.79ZM1075.79 40.32V41.82L1077.29 41.82V40.32L1075.79 40.32ZM1066.8 40.32H1065.3V41.82H1066.8V40.32ZM1128.69 2H1130.19V0.5L1128.69 0.5V2ZM1128.69 40.32V41.82H1130.19V40.32H1128.69ZM1119.7 40.32H1118.2V41.82H1119.7V40.32ZM1119.7 24.6088H1121.2V23.1088H1119.7V24.6088ZM1102.05 24.6088V23.1088H1100.55V24.6088H1102.05ZM1102.05 40.32V41.82H1103.55V40.32H1102.05ZM1093.06 40.32H1091.56V41.82H1093.06V40.32ZM1093.06 2V0.5L1091.56 0.5V2L1093.06 2ZM1102.05 2L1103.55 2V0.5L1102.05 0.5V2ZM1102.05 17.109H1100.55V18.609H1102.05V17.109ZM1119.7 17.109V18.609H1121.2V17.109H1119.7ZM1119.7 2V0.5L1118.2 0.5V2L1119.7 2ZM1167.97 33.2034H1169.47V31.7034H1167.97V33.2034ZM1167.97 40.32V41.82H1169.47V40.32H1167.97ZM1137.89 40.32H1136.39V41.82H1137.89V40.32ZM1137.89 2V0.5L1136.39 0.5V2H1137.89ZM1167.24 2H1168.74V0.5L1167.24 0.5V2ZM1167.24 9.11656V10.6166H1168.74V9.11656H1167.24ZM1146.82 9.11656V7.61656L1145.32 7.61656V9.11656H1146.82ZM1146.82 17.4375H1145.32V18.9375H1146.82V17.4375ZM1164.86 17.4375H1166.36V15.9375H1164.86V17.4375ZM1164.86 24.3351V25.8351H1166.36V24.3351H1164.86ZM1146.82 24.3351V22.8351H1145.32V24.3351H1146.82ZM1146.82 33.2034H1145.32V34.7034H1146.82V33.2034ZM1066.8 7.72605L1054.37 7.72605V10.726L1066.8 10.726V7.72605ZM1055.87 9.22605V2L1052.87 2V9.22605H1055.87ZM1054.37 3.5L1088.23 3.5V0.5L1054.37 0.5V3.5ZM1086.73 2V9.22605H1089.73V2L1086.73 2ZM1088.23 7.72605L1075.79 7.72605V10.726L1088.23 10.726V7.72605ZM1074.29 9.22605V40.32L1077.29 40.32V9.22605H1074.29ZM1075.79 38.82H1066.8V41.82H1075.79V38.82ZM1068.3 40.32V9.22605L1065.3 9.22605V40.32H1068.3ZM1127.19 2V40.32H1130.19V2L1127.19 2ZM1128.69 38.82L1119.7 38.82V41.82L1128.69 41.82V38.82ZM1121.2 40.32V24.6088H1118.2V40.32L1121.2 40.32ZM1119.7 23.1088L1102.05 23.1088V26.1088L1119.7 26.1088V23.1088ZM1100.55 24.6088V40.32H1103.55V24.6088H1100.55ZM1102.05 38.82H1093.06V41.82H1102.05V38.82ZM1094.56 40.32V2L1091.56 2V40.32H1094.56ZM1093.06 3.5L1102.05 3.5V0.5L1093.06 0.5V3.5ZM1100.55 2V17.109H1103.55V2L1100.55 2ZM1102.05 18.609L1119.7 18.609V15.609L1102.05 15.609V18.609ZM1121.2 17.109V2L1118.2 2V17.109H1121.2ZM1119.7 3.5L1128.69 3.5V0.5L1119.7 0.5V3.5ZM1166.47 33.2034V40.32H1169.47V33.2034H1166.47ZM1167.97 38.82L1137.89 38.82V41.82L1167.97 41.82V38.82ZM1139.39 40.32V2L1136.39 2V40.32H1139.39ZM1137.89 3.5L1167.24 3.5V0.5L1137.89 0.5V3.5ZM1165.74 2V9.11656H1168.74V2L1165.74 2ZM1167.24 7.61656L1146.82 7.61656V10.6166L1167.24 10.6166V7.61656ZM1145.32 9.11656V17.4375H1148.32V9.11656H1145.32ZM1146.82 18.9375L1164.86 18.9375V15.9375L1146.82 15.9375V18.9375ZM1163.36 17.4375V24.3351H1166.36V17.4375H1163.36ZM1164.86 22.8351L1146.82 22.8351V25.8351L1164.86 25.8351V22.8351ZM1145.32 24.3351V33.2034H1148.32V24.3351H1145.32ZM1146.82 34.7034L1167.97 34.7034V31.7034L1146.82 31.7034V34.7034Z" fill="#BE0101" mask="url(#path-13-outside-7_80_212)"/>
<mask id="path-15-outside-8_80_212" maskUnits="userSpaceOnUse" x="1185.06" y="0" width="200" height="43" fill="black">
<rect fill="white" x="1185.06" width="200" height="43"/>
<path d="M1220.75 9.22605L1208.32 9.22605V40.32H1199.44V9.22605L1187.06 9.22605V2L1220.75 2V9.22605Z"/>
<path d="M1256.48 33.2034V40.32L1226.4 40.32V2L1255.75 2V9.11656L1235.33 9.11656V17.4375L1253.37 17.4375V24.3351L1235.33 24.3351V33.2034L1256.48 33.2034Z"/>
<path d="M1298.37 2V40.32L1289.49 40.32V9.22605L1276.17 9.22605L1275.89 17.2185C1275.71 22.6563 1275.26 27.0722 1274.56 30.4663C1273.86 33.8238 1272.67 36.415 1271.01 38.2397C1269.38 40.028 1267.09 40.9221 1264.13 40.9221C1262.9 40.9221 1261.42 40.7214 1259.69 40.32L1260.24 32.8202C1260.72 32.9662 1261.26 33.0392 1261.85 33.0392C1264 33.0392 1265.49 31.7983 1266.35 29.3167C1267.2 26.7985 1267.73 22.8753 1267.96 17.547L1268.51 2L1298.37 2Z"/>
<path d="M1323.11 24.8825H1316.9V40.32H1307.96V2L1316.9 2V17.4922H1323.33L1333.54 2L1343.03 2L1330.33 20.5031L1343.42 40.32L1333.21 40.32L1323.11 24.8825Z"/>
<path d="M1347.64 2L1356.57 2V26.9627L1375.11 2L1383.54 2V40.32H1374.66V15.412L1356.13 40.32H1347.64V2Z"/>
</mask>
<path d="M1220.75 9.22605V10.726H1222.25V9.22605H1220.75ZM1208.32 9.22605V7.72605H1206.82V9.22605H1208.32ZM1208.32 40.32V41.82L1209.82 41.82V40.32L1208.32 40.32ZM1199.44 40.32H1197.94V41.82H1199.44V40.32ZM1199.44 9.22605L1200.94 9.22605V7.72605L1199.44 7.72605V9.22605ZM1187.06 9.22605H1185.56V10.726H1187.06V9.22605ZM1187.06 2V0.5L1185.56 0.5V2L1187.06 2ZM1220.75 2L1222.25 2V0.5L1220.75 0.5V2ZM1256.48 33.2034H1257.98V31.7034H1256.48V33.2034ZM1256.48 40.32V41.82H1257.98V40.32H1256.48ZM1226.4 40.32H1224.9V41.82H1226.4V40.32ZM1226.4 2V0.5L1224.9 0.5V2H1226.4ZM1255.75 2H1257.25V0.5L1255.75 0.5V2ZM1255.75 9.11656V10.6166H1257.25V9.11656H1255.75ZM1235.33 9.11656V7.61656L1233.83 7.61656V9.11656H1235.33ZM1235.33 17.4375H1233.83V18.9375H1235.33V17.4375ZM1253.37 17.4375H1254.87V15.9375H1253.37V17.4375ZM1253.37 24.3351V25.8351H1254.87V24.3351H1253.37ZM1235.33 24.3351V22.8351H1233.83V24.3351H1235.33ZM1235.33 33.2034H1233.83V34.7034H1235.33V33.2034ZM1298.37 2L1299.87 2V0.5L1298.37 0.5V2ZM1298.37 40.32V41.82H1299.87V40.32H1298.37ZM1289.49 40.32H1287.99V41.82H1289.49V40.32ZM1289.49 9.22605H1290.99V7.72605H1289.49V9.22605ZM1276.17 9.22605V7.72605H1274.72L1274.67 9.174L1276.17 9.22605ZM1275.89 17.2185L1274.39 17.1664L1274.39 17.1675L1275.89 17.2185ZM1274.56 30.4663L1276.03 30.7736L1276.03 30.7705L1274.56 30.4663ZM1271.01 38.2397L1269.9 37.2287L1269.9 37.23L1271.01 38.2397ZM1259.69 40.32L1258.19 40.2093L1258.1 41.4921L1259.35 41.7815L1259.69 40.32ZM1260.24 32.8202L1260.68 31.3848L1258.88 30.8406L1258.75 32.7095L1260.24 32.8202ZM1266.35 29.3167L1267.76 29.8032L1267.77 29.7969L1266.35 29.3167ZM1267.96 17.547L1269.45 17.6094L1269.45 17.6005L1267.96 17.547ZM1268.51 2V0.5L1267.06 0.5L1267.01 1.94649L1268.51 2ZM1323.11 24.8825L1324.37 24.0612L1323.92 23.3825H1323.11V24.8825ZM1316.9 24.8825V23.3825H1315.4V24.8825H1316.9ZM1316.9 40.32V41.82H1318.4V40.32H1316.9ZM1307.96 40.32H1306.46V41.82H1307.96V40.32ZM1307.96 2V0.5L1306.46 0.5V2L1307.96 2ZM1316.9 2L1318.4 2V0.5L1316.9 0.5V2ZM1316.9 17.4922H1315.4V18.9922H1316.9V17.4922ZM1323.33 17.4922V18.9922H1324.14L1324.59 18.3177L1323.33 17.4922ZM1333.54 2V0.5H1332.74L1332.29 1.17448L1333.54 2ZM1343.03 2L1344.27 2.84926L1345.88 0.5L1343.03 0.5V2ZM1330.33 20.5031L1329.09 19.6538L1328.52 20.4869L1329.07 21.3301L1330.33 20.5031ZM1343.42 40.32V41.82H1346.21L1344.67 39.4929L1343.42 40.32ZM1333.21 40.32L1331.96 41.1412L1332.4 41.82H1333.21V40.32ZM1347.64 2V0.5L1346.14 0.5V2H1347.64ZM1356.57 2L1358.07 2V0.5L1356.57 0.5V2ZM1356.57 26.9627H1355.07V31.4988L1357.77 27.857L1356.57 26.9627ZM1375.11 2V0.5H1374.35L1373.9 1.10574L1375.11 2ZM1383.54 2L1385.04 2V0.5L1383.54 0.5V2ZM1383.54 40.32V41.82H1385.04V40.32H1383.54ZM1374.66 40.32H1373.16V41.82H1374.66V40.32ZM1374.66 15.412H1376.16V10.8839L1373.46 14.5165L1374.66 15.412ZM1356.13 40.32V41.82H1356.88L1357.33 41.2155L1356.13 40.32ZM1347.64 40.32H1346.14V41.82H1347.64V40.32ZM1220.75 7.72605L1208.32 7.72605V10.726L1220.75 10.726V7.72605ZM1206.82 9.22605V40.32L1209.82 40.32V9.22605H1206.82ZM1208.32 38.82H1199.44V41.82H1208.32V38.82ZM1200.94 40.32V9.22605L1197.94 9.22605V40.32H1200.94ZM1199.44 7.72605L1187.06 7.72605V10.726L1199.44 10.726V7.72605ZM1188.56 9.22605V2L1185.56 2V9.22605H1188.56ZM1187.06 3.5L1220.75 3.5V0.5L1187.06 0.5V3.5ZM1219.25 2V9.22605H1222.25V2L1219.25 2ZM1254.98 33.2034V40.32H1257.98V33.2034H1254.98ZM1256.48 38.82L1226.4 38.82V41.82L1256.48 41.82V38.82ZM1227.9 40.32V2L1224.9 2V40.32H1227.9ZM1226.4 3.5L1255.75 3.5V0.5L1226.4 0.5V3.5ZM1254.25 2V9.11656H1257.25V2L1254.25 2ZM1255.75 7.61656L1235.33 7.61656V10.6166L1255.75 10.6166V7.61656ZM1233.83 9.11656V17.4375H1236.83V9.11656H1233.83ZM1235.33 18.9375L1253.37 18.9375V15.9375L1235.33 15.9375V18.9375ZM1251.87 17.4375V24.3351H1254.87V17.4375H1251.87ZM1253.37 22.8351L1235.33 22.8351V25.8351L1253.37 25.8351V22.8351ZM1233.83 24.3351V33.2034H1236.83V24.3351H1233.83ZM1235.33 34.7034L1256.48 34.7034V31.7034L1235.33 31.7034V34.7034ZM1296.87 2V40.32L1299.87 40.32V2L1296.87 2ZM1298.37 38.82L1289.49 38.82V41.82L1298.37 41.82V38.82ZM1290.99 40.32V9.22605L1287.99 9.22605V40.32H1290.99ZM1289.49 7.72605L1276.17 7.72605V10.726L1289.49 10.726V7.72605ZM1274.67 9.174L1274.39 17.1664L1277.39 17.2705L1277.67 9.2781L1274.67 9.174ZM1274.39 17.1675C1274.21 22.5623 1273.77 26.8844 1273.09 30.162L1276.03 30.7705C1276.76 27.26 1277.2 22.7502 1277.39 17.2695L1274.39 17.1675ZM1273.09 30.1589C1272.42 33.3513 1271.33 35.6645 1269.9 37.2287L1272.12 39.2508C1274.02 37.1654 1275.29 34.2963 1276.03 30.7736L1273.09 30.1589ZM1269.9 37.23C1268.62 38.6377 1266.77 39.4221 1264.13 39.4221V42.4221C1267.41 42.4221 1270.14 41.4183 1272.12 39.2495L1269.9 37.23ZM1264.13 39.4221C1263.06 39.4221 1261.7 39.2449 1260.02 38.8584L1259.35 41.7815C1261.15 42.1979 1262.75 42.4221 1264.13 42.4221V39.4221ZM1261.18 40.4307L1261.74 32.9309L1258.75 32.7095L1258.19 40.2093L1261.18 40.4307ZM1259.81 34.2555C1260.45 34.4512 1261.14 34.5392 1261.85 34.5392V31.5392C1261.38 31.5392 1260.99 31.4811 1260.68 31.3848L1259.81 34.2555ZM1261.85 34.5392C1263.23 34.5392 1264.49 34.1304 1265.54 33.2638C1266.56 32.4161 1267.28 31.2171 1267.76 29.8032L1264.93 28.8301C1264.56 29.8978 1264.1 30.5601 1263.63 30.9532C1263.17 31.3275 1262.61 31.5392 1261.85 31.5392V34.5392ZM1267.77 29.7969C1268.69 27.0676 1269.23 22.9672 1269.45 17.6094L1266.46 17.4845C1266.24 22.7833 1265.7 26.5294 1264.92 28.8364L1267.77 29.7969ZM1269.45 17.6005L1270.01 2.05351L1267.01 1.94649L1266.46 17.4934L1269.45 17.6005ZM1268.51 3.5L1298.37 3.5V0.5L1268.51 0.5V3.5ZM1323.11 23.3825H1316.9V26.3825H1323.11V23.3825ZM1315.4 24.8825V40.32H1318.4V24.8825H1315.4ZM1316.9 38.82H1307.96V41.82H1316.9V38.82ZM1309.46 40.32V2L1306.46 2V40.32H1309.46ZM1307.96 3.5L1316.9 3.5V0.5L1307.96 0.5V3.5ZM1315.4 2V17.4922H1318.4V2L1315.4 2ZM1316.9 18.9922H1323.33V15.9922H1316.9V18.9922ZM1324.59 18.3177L1334.8 2.82552L1332.29 1.17448L1322.08 16.6667L1324.59 18.3177ZM1333.54 3.5L1343.03 3.5V0.5L1333.54 0.5V3.5ZM1341.8 1.15074L1329.09 19.6538L1331.56 21.3523L1344.27 2.84926L1341.8 1.15074ZM1329.07 21.3301L1342.17 41.147L1344.67 39.4929L1331.58 19.676L1329.07 21.3301ZM1343.42 38.82L1333.21 38.82V41.82L1343.42 41.82V38.82ZM1334.47 39.4987L1324.37 24.0612L1321.86 25.7038L1331.96 41.1412L1334.47 39.4987ZM1347.64 3.5L1356.57 3.5V0.5L1347.64 0.5V3.5ZM1355.07 2V26.9627H1358.07V2L1355.07 2ZM1357.77 27.857L1376.31 2.89426L1373.9 1.10574L1355.37 26.0685L1357.77 27.857ZM1375.11 3.5L1383.54 3.5V0.5L1375.11 0.5V3.5ZM1382.04 2V40.32H1385.04V2L1382.04 2ZM1383.54 38.82H1374.66V41.82H1383.54V38.82ZM1376.16 40.32V15.412H1373.16V40.32H1376.16ZM1373.46 14.5165L1354.92 39.4244L1357.33 41.2155L1375.87 16.3075L1373.46 14.5165ZM1356.13 38.82H1347.64V41.82H1356.13V38.82ZM1349.14 40.32V2L1346.14 2V40.32H1349.14Z" fill="white" mask="url(#path-15-outside-8_80_212)"/>
<mask id="path-17-outside-9_80_212" maskUnits="userSpaceOnUse" x="1403.83" y="0.000488281" width="118" height="42" fill="black">
<rect fill="white" x="1403.83" y="0.000488281" width="118" height="42"/>
<path d="M1418.26 9.22654L1405.83 9.22654V2.00049L1439.68 2.00049V9.22654L1427.25 9.22654V40.3204H1418.26V9.22654Z"/>
<path d="M1480.15 2.00049V40.3204L1471.16 40.3204V24.6093L1453.51 24.6093V40.3204H1444.52V2.00049L1453.51 2.00049V17.1095L1471.16 17.1095V2.00049L1480.15 2.00049Z"/>
<path d="M1519.42 33.2039V40.3204L1489.34 40.3204V2.00049L1518.7 2.00049V9.11705L1498.28 9.11705V17.438L1516.32 17.438V24.3355L1498.28 24.3355V33.2039H1519.42Z"/>
</mask>
<path d="M1418.26 9.22654L1419.76 9.22654V7.72654L1418.26 7.72654V9.22654ZM1405.83 9.22654H1404.33V10.7265H1405.83V9.22654ZM1405.83 2.00049V0.500488L1404.33 0.500488V2.00049L1405.83 2.00049ZM1439.68 2.00049L1441.18 2.00049V0.500488L1439.68 0.500488V2.00049ZM1439.68 9.22654V10.7265H1441.18V9.22654H1439.68ZM1427.25 9.22654V7.72654H1425.75V9.22654H1427.25ZM1427.25 40.3204V41.8204L1428.75 41.8204V40.3204L1427.25 40.3204ZM1418.26 40.3204H1416.76V41.8204H1418.26V40.3204ZM1480.15 2.00049H1481.65V0.500488L1480.15 0.500488V2.00049ZM1480.15 40.3204V41.8204H1481.65V40.3204H1480.15ZM1471.16 40.3204H1469.66V41.8204H1471.16V40.3204ZM1471.16 24.6093H1472.66V23.1093H1471.16V24.6093ZM1453.51 24.6093V23.1093H1452.01V24.6093H1453.51ZM1453.51 40.3204V41.8204H1455.01V40.3204H1453.51ZM1444.52 40.3204H1443.02V41.8204H1444.52V40.3204ZM1444.52 2.00049V0.500488L1443.02 0.500488V2.00049L1444.52 2.00049ZM1453.51 2.00049L1455.01 2.00049V0.500488L1453.51 0.500488V2.00049ZM1453.51 17.1095H1452.01V18.6095H1453.51V17.1095ZM1471.16 17.1095V18.6095H1472.66V17.1095H1471.16ZM1471.16 2.00049V0.500488L1469.66 0.500488V2.00049L1471.16 2.00049ZM1519.42 33.2039H1520.92V31.7039H1519.42V33.2039ZM1519.42 40.3204V41.8204H1520.92V40.3204H1519.42ZM1489.34 40.3204H1487.84V41.8204H1489.34V40.3204ZM1489.34 2.00049V0.500488L1487.84 0.500488V2.00049H1489.34ZM1518.7 2.00049H1520.2V0.500488L1518.7 0.500488V2.00049ZM1518.7 9.11705V10.6171H1520.2V9.11705H1518.7ZM1498.28 9.11705V7.61705L1496.78 7.61705V9.11705H1498.28ZM1498.28 17.438H1496.78V18.938H1498.28V17.438ZM1516.32 17.438H1517.82V15.938H1516.32V17.438ZM1516.32 24.3355V25.8355H1517.82V24.3355H1516.32ZM1498.28 24.3355V22.8355H1496.78V24.3355H1498.28ZM1498.28 33.2039H1496.78V34.7039H1498.28V33.2039ZM1418.26 7.72654L1405.83 7.72654V10.7265L1418.26 10.7265V7.72654ZM1407.33 9.22654V2.00049L1404.33 2.00049V9.22654H1407.33ZM1405.83 3.50049L1439.68 3.50049V0.500488L1405.83 0.500488V3.50049ZM1438.18 2.00049V9.22654H1441.18V2.00049L1438.18 2.00049ZM1439.68 7.72654L1427.25 7.72654V10.7265L1439.68 10.7265V7.72654ZM1425.75 9.22654V40.3204L1428.75 40.3204V9.22654H1425.75ZM1427.25 38.8204H1418.26V41.8204H1427.25V38.8204ZM1419.76 40.3204V9.22654L1416.76 9.22654V40.3204H1419.76ZM1478.65 2.00049V40.3204H1481.65V2.00049L1478.65 2.00049ZM1480.15 38.8204L1471.16 38.8204V41.8204L1480.15 41.8204V38.8204ZM1472.66 40.3204V24.6093H1469.66V40.3204L1472.66 40.3204ZM1471.16 23.1093L1453.51 23.1093V26.1093L1471.16 26.1093V23.1093ZM1452.01 24.6093V40.3204H1455.01V24.6093H1452.01ZM1453.51 38.8204H1444.52V41.8204H1453.51V38.8204ZM1446.02 40.3204V2.00049L1443.02 2.00049V40.3204H1446.02ZM1444.52 3.50049L1453.51 3.50049V0.500488L1444.52 0.500488V3.50049ZM1452.01 2.00049V17.1095H1455.01V2.00049L1452.01 2.00049ZM1453.51 18.6095L1471.16 18.6095V15.6095L1453.51 15.6095V18.6095ZM1472.66 17.1095V2.00049L1469.66 2.00049V17.1095H1472.66ZM1471.16 3.50049L1480.15 3.50049V0.500488L1471.16 0.500488V3.50049ZM1517.92 33.2039V40.3204H1520.92V33.2039H1517.92ZM1519.42 38.8204L1489.34 38.8204V41.8204L1519.42 41.8204V38.8204ZM1490.84 40.3204V2.00049L1487.84 2.00049V40.3204H1490.84ZM1489.34 3.50049L1518.7 3.50049V0.500488L1489.34 0.500488V3.50049ZM1517.2 2.00049V9.11705H1520.2V2.00049L1517.2 2.00049ZM1518.7 7.61705L1498.28 7.61705V10.6171L1518.7 10.6171V7.61705ZM1496.78 9.11705V17.438H1499.78V9.11705H1496.78ZM1498.28 18.938L1516.32 18.938V15.938L1498.28 15.938V18.938ZM1514.82 17.438V24.3355H1517.82V17.438H1514.82ZM1516.32 22.8355L1498.28 22.8355V25.8355L1516.32 25.8355V22.8355ZM1496.78 24.3355V33.2039H1499.78V24.3355H1496.78ZM1498.28 34.7039L1519.42 34.7039V31.7039L1498.28 31.7039V34.7039Z" fill="#BE0101" mask="url(#path-17-outside-9_80_212)"/>
<mask id="path-19-outside-10_80_212" maskUnits="userSpaceOnUse" x="1536.52" y="0.000488281" width="200" height="43" fill="black">
<rect fill="white" x="1536.52" y="0.000488281" width="200" height="43"/>
<path d="M1572.21 9.22654L1559.78 9.22654V40.3204H1550.9V9.22654L1538.52 9.22654V2.00049L1572.21 2.00049V9.22654Z"/>
<path d="M1607.93 33.2039V40.3204L1577.85 40.3204V2.00049L1607.21 2.00049V9.11705L1586.79 9.11705V17.438L1604.82 17.438V24.3355L1586.79 24.3355V33.2039L1607.93 33.2039Z"/>
<path d="M1649.83 2.00049V40.3204L1640.95 40.3204V9.22654L1627.63 9.22654L1627.35 17.219C1627.16 22.6568 1626.72 27.0727 1626.02 30.4667C1625.31 33.8243 1624.13 36.4155 1622.47 38.2402C1620.84 40.0285 1618.54 40.9226 1615.58 40.9226C1614.36 40.9226 1612.88 40.7219 1611.14 40.3204L1611.7 32.8207C1612.18 32.9667 1612.72 33.0396 1613.31 33.0396C1615.45 33.0396 1616.95 31.7988 1617.8 29.3171C1618.65 26.799 1619.19 22.8757 1619.41 17.5474L1619.97 2.00049L1649.83 2.00049Z"/>
<path d="M1674.57 24.883H1668.35V40.3204H1659.42V2.00049L1668.35 2.00049V17.4927H1674.79L1685 2.00049L1694.49 2.00049L1681.78 20.5036L1694.88 40.3204L1684.67 40.3204L1674.57 24.883Z"/>
<path d="M1699.09 2.00049L1708.03 2.00049V26.9632L1726.56 2.00049L1735 2.00049V40.3204H1726.12V15.4125L1707.58 40.3204H1699.09V2.00049Z"/>
</mask>
<path d="M1572.21 9.22654V10.7265H1573.71V9.22654H1572.21ZM1559.78 9.22654V7.72654H1558.28V9.22654H1559.78ZM1559.78 40.3204V41.8204L1561.28 41.8204V40.3204L1559.78 40.3204ZM1550.9 40.3204H1549.4V41.8204H1550.9V40.3204ZM1550.9 9.22654L1552.4 9.22654V7.72654L1550.9 7.72654V9.22654ZM1538.52 9.22654H1537.02V10.7265H1538.52V9.22654ZM1538.52 2.00049V0.500488L1537.02 0.500488V2.00049L1538.52 2.00049ZM1572.21 2.00049L1573.71 2.00049V0.500488L1572.21 0.500488V2.00049ZM1607.93 33.2039H1609.43V31.7039H1607.93V33.2039ZM1607.93 40.3204V41.8204H1609.43V40.3204H1607.93ZM1577.85 40.3204H1576.35V41.8204H1577.85V40.3204ZM1577.85 2.00049V0.500488L1576.35 0.500488V2.00049H1577.85ZM1607.21 2.00049H1608.71V0.500488L1607.21 0.500488V2.00049ZM1607.21 9.11705V10.6171H1608.71V9.11705H1607.21ZM1586.79 9.11705V7.61705L1585.29 7.61705V9.11705H1586.79ZM1586.79 17.438H1585.29V18.938H1586.79V17.438ZM1604.82 17.438H1606.32V15.938H1604.82V17.438ZM1604.82 24.3355V25.8355H1606.32V24.3355H1604.82ZM1586.79 24.3355V22.8355H1585.29V24.3355H1586.79ZM1586.79 33.2039H1585.29V34.7039H1586.79V33.2039ZM1649.83 2.00049L1651.33 2.00049V0.500488L1649.83 0.500488V2.00049ZM1649.83 40.3204V41.8204H1651.33V40.3204H1649.83ZM1640.95 40.3204H1639.45V41.8204H1640.95V40.3204ZM1640.95 9.22654H1642.45V7.72654H1640.95V9.22654ZM1627.63 9.22654V7.72654H1626.18L1626.13 9.17449L1627.63 9.22654ZM1627.35 17.219L1625.85 17.1669L1625.85 17.168L1627.35 17.219ZM1626.02 30.4667L1627.49 30.7741L1627.49 30.771L1626.02 30.4667ZM1622.47 38.2402L1621.36 37.2292L1621.36 37.2304L1622.47 38.2402ZM1611.14 40.3204L1609.65 40.2097L1609.55 41.4926L1610.81 41.782L1611.14 40.3204ZM1611.7 32.8207L1612.13 31.3853L1610.34 30.8411L1610.2 32.71L1611.7 32.8207ZM1617.8 29.3171L1619.22 29.8037L1619.22 29.7974L1617.8 29.3171ZM1619.41 17.5474L1620.91 17.6099L1620.91 17.601L1619.41 17.5474ZM1619.97 2.00049V0.500488L1618.52 0.500488L1618.47 1.94698L1619.97 2.00049ZM1674.57 24.883L1675.82 24.0617L1675.38 23.383H1674.57V24.883ZM1668.35 24.883V23.383H1666.85V24.883H1668.35ZM1668.35 40.3204V41.8204H1669.85V40.3204H1668.35ZM1659.42 40.3204H1657.92V41.8204H1659.42V40.3204ZM1659.42 2.00049V0.500488L1657.92 0.500488V2.00049L1659.42 2.00049ZM1668.35 2.00049L1669.85 2.00049V0.500488L1668.35 0.500488V2.00049ZM1668.35 17.4927H1666.85V18.9927H1668.35V17.4927ZM1674.79 17.4927V18.9927H1675.6L1676.04 18.3182L1674.79 17.4927ZM1685 2.00049V0.500488H1684.19L1683.75 1.17497L1685 2.00049ZM1694.49 2.00049L1695.73 2.84975L1697.34 0.500488L1694.49 0.500488V2.00049ZM1681.78 20.5036L1680.55 19.6543L1679.97 20.4874L1680.53 21.3306L1681.78 20.5036ZM1694.88 40.3204V41.8204H1697.67L1696.13 39.4934L1694.88 40.3204ZM1684.67 40.3204L1683.41 41.1417L1683.86 41.8204H1684.67V40.3204ZM1699.09 2.00049V0.500488L1697.59 0.500488V2.00049H1699.09ZM1708.03 2.00049L1709.53 2.00049V0.500488L1708.03 0.500488V2.00049ZM1708.03 26.9632H1706.53V31.4993L1709.23 27.8575L1708.03 26.9632ZM1726.56 2.00049V0.500488H1725.81L1725.36 1.10623L1726.56 2.00049ZM1735 2.00049L1736.5 2.00049V0.500488L1735 0.500488V2.00049ZM1735 40.3204V41.8204H1736.5V40.3204H1735ZM1726.12 40.3204H1724.62V41.8204H1726.12V40.3204ZM1726.12 15.4125H1727.62V10.8844L1724.92 14.5169L1726.12 15.4125ZM1707.58 40.3204V41.8204H1708.34L1708.79 41.216L1707.58 40.3204ZM1699.09 40.3204H1697.59V41.8204H1699.09V40.3204ZM1572.21 7.72654L1559.78 7.72654V10.7265L1572.21 10.7265V7.72654ZM1558.28 9.22654V40.3204L1561.28 40.3204V9.22654H1558.28ZM1559.78 38.8204H1550.9V41.8204H1559.78V38.8204ZM1552.4 40.3204V9.22654L1549.4 9.22654V40.3204H1552.4ZM1550.9 7.72654L1538.52 7.72654V10.7265L1550.9 10.7265V7.72654ZM1540.02 9.22654V2.00049L1537.02 2.00049V9.22654H1540.02ZM1538.52 3.50049L1572.21 3.50049V0.500488L1538.52 0.500488V3.50049ZM1570.71 2.00049V9.22654H1573.71V2.00049L1570.71 2.00049ZM1606.43 33.2039V40.3204H1609.43V33.2039H1606.43ZM1607.93 38.8204L1577.85 38.8204V41.8204L1607.93 41.8204V38.8204ZM1579.35 40.3204V2.00049L1576.35 2.00049V40.3204H1579.35ZM1577.85 3.50049L1607.21 3.50049V0.500488L1577.85 0.500488V3.50049ZM1605.71 2.00049V9.11705H1608.71V2.00049L1605.71 2.00049ZM1607.21 7.61705L1586.79 7.61705V10.6171L1607.21 10.6171V7.61705ZM1585.29 9.11705V17.438H1588.29V9.11705H1585.29ZM1586.79 18.938L1604.82 18.938V15.938L1586.79 15.938V18.938ZM1603.32 17.438V24.3355H1606.32V17.438H1603.32ZM1604.82 22.8355L1586.79 22.8355V25.8355L1604.82 25.8355V22.8355ZM1585.29 24.3355V33.2039H1588.29V24.3355H1585.29ZM1586.79 34.7039L1607.93 34.7039V31.7039L1586.79 31.7039V34.7039ZM1648.33 2.00049V40.3204L1651.33 40.3204V2.00049L1648.33 2.00049ZM1649.83 38.8204L1640.95 38.8204V41.8204L1649.83 41.8204V38.8204ZM1642.45 40.3204V9.22654L1639.45 9.22654V40.3204H1642.45ZM1640.95 7.72654L1627.63 7.72654V10.7265L1640.95 10.7265V7.72654ZM1626.13 9.17449L1625.85 17.1669L1628.85 17.271L1629.13 9.27859L1626.13 9.17449ZM1625.85 17.168C1625.67 22.5628 1625.23 26.8849 1624.55 30.1625L1627.49 30.771C1628.21 27.2605 1628.66 22.7507 1628.85 17.27L1625.85 17.168ZM1624.55 30.1593C1623.88 33.3518 1622.78 35.665 1621.36 37.2292L1623.57 39.2512C1625.48 37.1659 1626.75 34.2968 1627.49 30.7741L1624.55 30.1593ZM1621.36 37.2304C1620.07 38.6382 1618.22 39.4226 1615.58 39.4226V42.4226C1618.86 42.4226 1621.6 41.4188 1623.57 39.25L1621.36 37.2304ZM1615.58 39.4226C1614.51 39.4226 1613.15 39.2454 1611.48 38.8589L1610.81 41.782C1612.61 42.1984 1614.21 42.4226 1615.58 42.4226V39.4226ZM1612.64 40.4311L1613.19 32.9314L1610.2 32.71L1609.65 40.2097L1612.64 40.4311ZM1611.26 34.256C1611.91 34.4517 1612.59 34.5396 1613.31 34.5396V31.5396C1612.84 31.5396 1612.45 31.4816 1612.13 31.3853L1611.26 34.256ZM1613.31 34.5396C1614.69 34.5396 1615.95 34.1309 1617 33.2643C1618.02 32.4166 1618.74 31.2176 1619.22 29.8037L1616.38 28.8306C1616.02 29.8983 1615.56 30.5606 1615.08 30.9537C1614.63 31.328 1614.07 31.5396 1613.31 31.5396V34.5396ZM1619.22 29.7974C1620.15 27.0681 1620.69 22.9677 1620.91 17.6099L1617.91 17.485C1617.69 22.7838 1617.16 26.5299 1616.38 28.8369L1619.22 29.7974ZM1620.91 17.601L1621.47 2.054L1618.47 1.94698L1617.91 17.4939L1620.91 17.601ZM1619.97 3.50049L1649.83 3.50049V0.500488L1619.97 0.500488V3.50049ZM1674.57 23.383H1668.35V26.383H1674.57V23.383ZM1666.85 24.883V40.3204H1669.85V24.883H1666.85ZM1668.35 38.8204H1659.42V41.8204H1668.35V38.8204ZM1660.92 40.3204V2.00049L1657.92 2.00049V40.3204H1660.92ZM1659.42 3.50049L1668.35 3.50049V0.500488L1659.42 0.500488V3.50049ZM1666.85 2.00049V17.4927H1669.85V2.00049L1666.85 2.00049ZM1668.35 18.9927H1674.79V15.9927H1668.35V18.9927ZM1676.04 18.3182L1686.25 2.82601L1683.75 1.17497L1673.54 16.6672L1676.04 18.3182ZM1685 3.50049L1694.49 3.50049V0.500488L1685 0.500488V3.50049ZM1693.26 1.15123L1680.55 19.6543L1683.02 21.3528L1695.73 2.84975L1693.26 1.15123ZM1680.53 21.3306L1693.63 41.1475L1696.13 39.4934L1683.03 19.6765L1680.53 21.3306ZM1694.88 38.8204L1684.67 38.8204V41.8204L1694.88 41.8204V38.8204ZM1685.92 39.4992L1675.82 24.0617L1673.31 25.7042L1683.41 41.1417L1685.92 39.4992ZM1699.09 3.50049L1708.03 3.50049V0.500488L1699.09 0.500488V3.50049ZM1706.53 2.00049V26.9632H1709.53V2.00049L1706.53 2.00049ZM1709.23 27.8575L1727.77 2.89475L1725.36 1.10623L1706.82 26.0689L1709.23 27.8575ZM1726.56 3.50049L1735 3.50049V0.500488L1726.56 0.500488V3.50049ZM1733.5 2.00049V40.3204H1736.5V2.00049L1733.5 2.00049ZM1735 38.8204H1726.12V41.8204H1735V38.8204ZM1727.62 40.3204V15.4125H1724.62V40.3204H1727.62ZM1724.92 14.5169L1706.38 39.4249L1708.79 41.216L1727.32 16.308L1724.92 14.5169ZM1707.58 38.8204H1699.09V41.8204H1707.58V38.8204ZM1700.59 40.3204V2.00049L1697.59 2.00049V40.3204H1700.59Z" fill="white" mask="url(#path-19-outside-10_80_212)"/>
</svg>
