<svg width="72" height="59" viewBox="0 0 72 59" fill="none" xmlns="http://www.w3.org/2000/svg">
<mask id="mask0_14_1085" style="mask-type:alpha" maskUnits="userSpaceOnUse" x="1" y="0" width="71" height="46">
<path d="M1.25024 0C1.25024 0 9.39107 8.31006 27.6783 9.44417C45.9654 10.5783 65.2781 14.3014 71.0169 20.2422C71.0169 20.2422 73.5276 22.0583 70.5243 21.9244C67.5211 21.7905 51.1712 25.0615 34.152 35.6726C17.5546 46.0211 4.18781 45.9503 1.38411 45.9503L1.25024 0Z" fill="#AA5252"/>
</mask>
<g mask="url(#mask0_14_1085)">
<path d="M73.5276 0H1.25024V46.0211H73.5276V0Z" fill="#870202"/>
<path d="M69.2337 19.4239C69.0821 32.768 53.1011 43.4044 33.5383 43.1821C23.7582 43.0709 14.9329 40.2647 8.57279 35.8192C5.39274 33.5965 2.829 30.9645 1.06848 28.0522H1.22761V9.51245H1.11142C1.16699 9.42152 1.22256 9.33311 1.28065 9.24218C3.10685 6.37281 5.72868 3.79897 8.95925 1.64946C9.76752 1.11146 10.6112 0.601235 11.4927 0.118797C11.6038 0.0581767 11.7124 -0.00244384 11.8236 -0.0605385V-0.0251765H55.2253V-0.100952C55.6774 0.136478 56.1195 0.381486 56.5564 0.631546C57.4253 1.13419 58.2589 1.66462 59.0545 2.22031C65.4121 6.66581 69.3095 12.7506 69.2337 19.4239Z" fill="#870202"/>
<path d="M68.9734 19.4188C68.8219 32.6669 52.957 43.225 33.5382 43.0052C23.8289 42.8941 15.0692 40.1106 8.75456 35.6979C5.59725 33.4903 3.05118 30.8786 1.30582 27.989C1.25025 27.8981 1.19721 27.8072 1.14417 27.7162H1.22499V9.8534H1.1871C1.29319 9.67406 1.40433 9.49473 1.51799 9.31539C3.32903 6.46623 5.93318 3.91007 9.14102 1.77572C9.94171 1.24276 10.7828 0.735067 11.6568 0.255155C11.874 0.13644 12.0963 0.0177245 12.3185 -0.0984647V-0.025215H54.7327V-0.136353C54.8463 -0.0782579 54.9575 -0.0201633 55.0711 0.0379314C55.5207 0.272836 55.9602 0.515318 56.3922 0.765377C57.256 1.26297 58.082 1.79087 58.8726 2.34151C65.1821 6.75418 69.0492 12.796 68.9734 19.4188Z" fill="#880202"/>
<path d="M68.7158 19.4162C68.5668 32.5658 52.8181 43.0481 33.5408 42.8283C23.9021 42.7197 15.2056 39.9539 8.93895 35.5741C5.80436 33.3842 3.27851 30.7901 1.54577 27.9207C1.43716 27.7414 1.33108 27.5621 1.23004 27.3802C1.17953 27.2893 1.12901 27.1984 1.07849 27.1074H1.22752V10.4595H1.1189C1.31845 10.0983 1.53062 9.73965 1.75542 9.38603C3.55383 6.55708 6.1403 4.02112 9.32288 1.90193C10.1185 1.3715 10.9521 0.868852 11.8184 0.393992C12.0356 0.275276 12.2554 0.159087 12.4751 0.0428979C12.5863 -0.0151968 12.6974 -0.0707656 12.8086 -0.12886V-0.0253002H54.2376V-0.166748C54.4649 -0.0530846 54.6897 0.0605789 54.912 0.179294C55.3566 0.411673 55.7935 0.654155 56.2229 0.901688C57.0792 1.39676 57.9001 1.91961 58.6831 2.46772C64.9523 6.84502 68.7916 12.8414 68.7158 19.4162Z" fill="#890202"/>
<path d="M68.4582 19.4137C68.3092 32.4648 52.6766 42.8713 33.5433 42.654C23.9754 42.5454 15.3445 39.8024 9.12335 35.4528C6.01402 33.2781 3.50585 30.7042 1.78321 27.8551C1.56852 27.4989 1.36645 27.1377 1.17448 26.774H1.225V11.0657H1.07092C1.16438 10.8839 1.26036 10.702 1.35887 10.5227C1.55841 10.164 1.76806 9.80784 1.99033 9.45675C3.77611 6.648 6.34238 4.13225 9.4997 2.02821C10.2903 1.50283 11.1162 1.00271 11.9776 0.530378C12.407 0.295473 12.8465 0.0656205 13.2935 -0.156655V-0.0253102H53.7451V-0.192017C53.8587 -0.136448 53.9724 -0.080879 54.0835 -0.0253102C54.3083 0.0883532 54.5306 0.202017 54.7529 0.318206C55.1949 0.550585 55.6294 0.788015 56.0537 1.03555C56.9049 1.52809 57.7183 2.04589 58.4962 2.58895C64.7224 6.93594 68.5314 12.8869 68.4582 19.4137Z" fill="#8A0303"/>
<path d="M68.2006 19.4112C68.0541 32.3663 52.5378 42.692 33.5459 42.4773C24.0486 42.3687 15.4835 39.6458 9.30776 35.3291C6.22117 33.1721 3.73068 30.6159 2.0232 27.7895C1.8085 27.4358 1.60896 27.0797 1.41952 26.716C1.32606 26.5341 1.23513 26.3548 1.14673 26.1704H1.22756V11.3941H1.18209C1.22756 11.3032 1.27302 11.2123 1.31849 11.1214C1.40942 10.9395 1.5054 10.7602 1.60391 10.5833C1.80092 10.2272 2.01057 9.87358 2.23285 9.52501C4.006 6.73899 6.55206 4.24092 9.68664 2.15204C10.4697 1.62919 11.2906 1.13412 12.1468 0.66684C12.5737 0.431935 13.0107 0.204609 13.4527 -0.0151408C13.5638 -0.0707096 13.675 -0.123752 13.7861 -0.179321V-0.0252442H53.5986V-0.0479769C53.7123 0.00759192 53.8234 0.0631607 53.9346 0.11873C54.1568 0.229867 54.3791 0.343531 54.5989 0.45972C55.0384 0.689573 55.4677 0.927003 55.8896 1.17201C56.7332 1.6595 57.5415 2.17477 58.3144 2.71278C64.4901 7.02441 68.2738 12.9324 68.2006 19.4112Z" fill="#8B0303"/>
<path d="M67.9404 19.4087C67.7939 32.2653 52.3963 42.5152 33.5458 42.3005C24.1219 42.1944 15.6173 39.4892 9.4896 35.2079C6.42574 33.066 3.95545 30.53 2.2606 27.7238C1.83626 27.0216 1.46243 26.3043 1.1366 25.5718H1.225V11.9978H1.16943C1.20985 11.9069 1.25279 11.816 1.29573 11.725C1.63672 11.0001 2.02822 10.2904 2.46772 9.59828C4.22572 6.83247 6.7541 4.35208 9.86595 2.28088C10.6439 1.76308 11.4598 1.27054 12.3059 0.80578C12.7303 0.573402 13.1622 0.348601 13.6042 0.128851C13.824 0.0202396 14.0462 -0.0883721 14.271 -0.194458V-0.0252258H53.1136V-0.0681653C54.9196 0.788099 56.5993 1.76055 58.1325 2.83151C64.2602 7.11536 68.0136 12.9804 67.9404 19.4087Z" fill="#8C0303"/>
<path d="M67.6827 19.4062C67.5388 32.1668 52.2548 42.3384 33.5484 42.1262C24.1951 42.0201 15.7562 39.3377 9.67398 35.0867C6.63285 32.9624 4.18025 30.4441 2.49803 27.6606C2.07621 26.9635 1.70491 26.2512 1.38413 25.5238C1.3033 25.3419 1.22753 25.16 1.15175 24.9757H1.225V12.8718H1.07092C1.2149 12.503 1.3715 12.1393 1.54073 11.7806C1.8792 11.0607 2.26818 10.356 2.70262 9.67151C4.44799 6.92591 6.95616 4.46573 10.0453 2.40968C10.8182 1.89693 11.6265 1.40692 12.4676 0.944686C12.8894 0.714833 13.3188 0.490032 13.7558 0.272809C13.9755 0.164197 14.1953 0.0581114 14.4175 -0.0479745V-0.0252418H52.6287V-0.0808105C52.7423 -0.0277676 52.8535 0.0252753 52.9671 0.0783183C54.7605 0.929531 56.4275 1.89441 57.9481 2.95779C64.0304 7.20628 67.756 13.0258 67.6827 19.4062Z" fill="#8D0303"/>
<path d="M67.4251 19.4011C67.2811 32.0632 52.1159 42.159 33.5509 41.9468C24.2683 41.8408 15.8951 39.1785 9.85835 34.9603C6.83996 32.8512 4.40756 30.3532 2.73797 27.5899C2.3212 26.9003 1.9499 26.1931 1.63164 25.4707C1.47252 25.1095 1.32602 24.7458 1.19215 24.377H1.22751V13.4653H1.1189C1.18457 13.2809 1.25277 13.0991 1.32349 12.9147C1.46494 12.551 1.62154 12.1898 1.78825 11.8311C2.12419 11.1163 2.51064 10.4191 2.94256 9.73715C4.67277 7.01934 7.16326 4.57684 10.2271 2.53595C10.995 2.02572 11.7957 1.54076 12.6317 1.08358C13.0485 0.853727 13.4754 0.631452 13.9098 0.416754C14.127 0.308143 14.3468 0.204583 14.5665 0.0984966C14.6777 0.0454537 14.7888 -0.00506335 14.9 -0.0555804V-0.0252702H52.1487V-0.0909424C52.376 0.0100918 52.5983 0.113652 52.8206 0.219738C54.5988 1.06337 56.2532 2.02067 57.7637 3.07648C63.8005 7.29465 67.4958 13.0713 67.4251 19.4011Z" fill="#8E0303"/>
<path d="M67.165 19.3986C67.021 31.9648 51.972 41.9798 33.5509 41.7701C24.3391 41.6666 16.0316 39.0245 10.0403 34.8366C7.0446 32.7427 4.63241 30.2649 2.97545 27.5243C2.14697 26.1528 1.50792 24.7181 1.08105 23.2304H1.22503V14.0615H1.18714C1.64937 12.5864 2.31872 11.1643 3.18004 9.81302C4.89762 7.11035 7.36791 4.68553 10.4116 2.66232C11.9296 1.65198 13.5941 0.737622 15.3774 -0.0580218V-0.0251857H51.6689V-0.0933838C51.7825 -0.0428667 51.8937 0.00765037 52.0073 0.0581674C52.2321 0.159202 52.4544 0.262762 52.6741 0.366322C54.4397 1.20491 56.0815 2.15463 57.5794 3.20033C63.5682 7.38567 67.2382 13.1168 67.165 19.3986Z" fill="#8F0303"/>
<path d="M66.9074 19.3961C66.7659 31.8637 51.8331 41.803 33.5535 41.5958C24.4149 41.4923 16.168 38.8704 10.2272 34.7179C7.2568 32.6417 4.85976 30.1815 3.21543 27.4612C2.39453 26.1022 1.76054 24.6751 1.33619 23.2026C1.23011 22.8338 1.13665 22.4625 1.05835 22.0887H1.22758V15.2082H1.13665C1.22506 14.8344 1.32609 14.4656 1.43975 14.0994C1.89693 12.6344 2.56376 11.225 3.4175 9.88374C5.12245 7.20128 7.57505 4.79667 10.5909 2.78862C12.0989 1.78585 13.7508 0.87907 15.5214 0.0884777C15.6325 0.0379606 15.7437 -0.0100306 15.8548 -0.0580218V-0.0251857H51.194V-0.0933838C51.6462 0.101107 52.0932 0.300649 52.5302 0.510295C54.2806 1.3413 55.9123 2.28344 57.3975 3.32157C63.3383 7.4766 66.9781 13.1623 66.9074 19.3961Z" fill="#900404"/>
<path d="M66.6497 19.3936C66.5083 31.7652 51.6916 41.6261 33.556 41.419C24.4882 41.3155 16.3069 38.7164 10.4116 34.5942C7.46393 32.5331 5.0871 30.0931 3.4554 27.393C2.63955 26.0441 2.01061 24.6297 1.58879 23.1672C1.37914 22.4347 1.22002 21.6921 1.11646 20.9369H1.22507V16.3575H1.1695C1.29074 15.6048 1.46502 14.8647 1.69235 14.1398C2.147 12.6874 2.80878 11.2881 3.65241 9.95698C5.34473 7.29726 7.77713 4.91032 10.7703 2.91742C12.2681 1.91971 13.9049 1.02303 15.6603 0.237494C15.8801 0.138986 16.1023 0.0430031 16.3246 -0.0504535V-0.0251949H50.7192V-0.0858154C50.8328 -0.0378242 50.944 0.010167 51.0576 0.0581582C51.5072 0.250123 51.9493 0.449666 52.3837 0.656786C54.1215 1.48274 55.738 2.41731 57.2131 3.44785C63.1085 7.565 66.7205 13.2078 66.6497 19.3936Z" fill="#910404"/>
<path d="M66.392 19.391C66.2531 31.6641 51.5526 41.4493 33.5584 41.2447C15.5643 41.0376 1.09364 30.9215 1.23256 18.6484C1.30328 12.5106 5.01124 6.99663 10.9546 3.04367C12.4398 2.05606 14.0639 1.16443 15.8067 0.383944C16.2412 0.189453 16.6857 0.0025402 17.1353 -0.179321V-0.0252442H50.2493V-0.0757613C50.4766 0.0151695 50.7014 0.108626 50.9237 0.204609C51.3682 0.394048 51.8077 0.59359 52.2397 0.798184C53.9648 1.61656 55.5687 2.54355 57.0312 3.56652C62.8786 7.65588 66.4602 13.2532 66.392 19.391Z" fill="#920404"/>
<path d="M66.1319 19.3884C65.993 31.5655 51.4112 41.2699 33.561 41.0678C15.7108 40.8632 1.35134 30.828 1.49026 18.6509C1.55846 12.5635 5.24115 7.09255 11.134 3.1699C12.6091 2.18986 14.2206 1.30581 15.9482 0.532904C16.3802 0.340939 16.8197 0.154025 17.2667 -0.0253102H49.4385V-0.192017C50.3504 0.156551 51.2344 0.535429 52.0907 0.942092C53.8007 1.75289 55.392 2.67483 56.8443 3.6877C62.6462 7.74674 66.2026 13.2986 66.1319 19.3884Z" fill="#930404"/>
<path d="M65.8743 19.3835C65.7379 31.4621 51.2698 41.0907 33.5635 40.8886C15.8548 40.6865 1.61148 30.7322 1.7504 18.6535C1.8186 12.6142 5.47098 7.18614 11.3183 3.29632C12.7783 2.32387 14.3771 1.4474 16.0922 0.679536C16.5216 0.487571 16.956 0.303184 17.4006 0.126374C17.6229 0.037969 17.8451 -0.0504359 18.0699 -0.133789V-0.0251773H49.3148V-0.0378066C50.219 0.308235 51.098 0.684588 51.9467 1.08872C53.6441 1.89447 55.2227 2.80631 56.6625 3.81412C62.4164 7.83528 65.9425 13.3442 65.8743 19.3835Z" fill="#940404"/>
<path d="M65.6166 19.3809C65.4803 31.3636 51.1309 40.9138 33.5661 40.7143C16.0013 40.5147 1.87166 30.6387 2.00806 18.6585C2.07626 12.6672 5.69833 7.28461 11.4977 3.4251C12.9475 2.46023 14.5338 1.58881 16.2337 0.828524C16.658 0.639085 17.0925 0.454697 17.5294 0.277888C17.7492 0.189483 17.9715 0.103604 18.1937 0.0177246C18.3049 -0.025215 18.416 -0.0656286 18.5297 -0.108568V-0.025215H48.509V-0.136353C48.7364 -0.0529994 48.9637 0.0303538 49.186 0.116233C50.0826 0.459749 50.9541 0.833575 51.7952 1.23266C53.4774 2.03083 55.0434 2.93761 56.4731 3.93532C62.1865 7.92617 65.6848 13.3896 65.6166 19.3809Z" fill="#950505"/>
<path d="M65.3564 19.3783C65.22 31.2624 50.9868 40.7369 33.566 40.5374C16.1452 40.3403 2.12924 30.5451 2.26564 18.6609C2.33383 12.7176 5.9256 7.38047 11.6795 3.55127C13.1167 2.59397 14.6903 1.73013 16.3776 0.977428C17.2212 0.601076 18.0926 0.249982 18.9918 -0.0708016V-0.0253362H48.0518V-0.103638C48.1655 -0.063224 48.2791 -0.0228104 48.3928 0.0176033C48.6176 0.0984306 48.8424 0.181784 49.0647 0.267663C49.9538 0.608653 50.8176 0.979954 51.6537 1.37399C53.3232 2.1671 54.8766 3.06378 56.2937 4.05392C61.9566 8.01698 65.4246 13.4375 65.3564 19.3783Z" fill="#960505"/>
<path d="M65.0988 19.3758C64.9649 31.164 50.8479 40.5576 33.5686 40.3631C16.2892 40.1661 2.38943 30.4517 2.5233 18.666C2.5915 12.7732 6.15295 7.4765 11.8589 3.68015C13.286 2.7279 14.8469 1.87164 16.5191 1.12398C17.3551 0.750156 18.2215 0.401588 19.1106 0.0833307C19.3329 0.0025034 19.5577 -0.0732722 19.7825 -0.149048V-0.025281H47.5921V-0.0631688C48.0468 0.0909083 48.4938 0.255089 48.9359 0.424321C49.8199 0.762785 50.6762 1.12903 51.5021 1.52307C53.1591 2.30861 54.6973 3.20023 56.1017 4.18279C61.7243 8.10797 65.167 13.483 65.0988 19.3758Z" fill="#970505"/>
<path d="M64.8411 19.3733C64.7073 31.063 50.709 40.3808 33.5711 40.1863C16.4332 39.9918 2.64957 30.3557 2.78344 18.6661C2.84911 12.8212 6.38278 7.56998 12.0432 3.80393C13.4577 2.86179 15.006 2.0131 16.6655 1.2705C17.494 0.899201 18.3528 0.555685 19.2368 0.239953C19.4566 0.161651 19.6789 0.08335 19.9037 0.00757433C20.0148 -0.0303135 20.1285 -0.0682013 20.2396 -0.103563V-0.0252618H46.804V-0.131348C47.0313 -0.0580979 47.2587 0.0176777 47.4835 0.0934534C47.9331 0.24753 48.3776 0.409185 48.8171 0.575892C49.6936 0.91183 50.5423 1.27555 51.3632 1.66453C53.005 2.44502 54.5331 3.32655 55.9249 4.30153C61.4944 8.19639 64.9068 13.5285 64.8411 19.3733Z" fill="#980505"/>
<path d="M64.5835 19.3707C64.4522 30.9619 50.5676 40.204 33.5736 40.0095C16.5797 39.815 2.90976 30.2622 3.0411 18.6685C3.10677 12.8717 6.61013 7.66338 12.2226 3.93017C13.6244 2.9956 15.1601 2.15449 16.807 1.41947C17.6304 1.05069 18.4791 0.709704 19.3556 0.396498C19.7926 0.239895 20.2371 0.0908698 20.6867 -0.0531038V-0.0253194H46.0084V-0.184448C49.6785 0.91935 52.9747 2.49548 55.738 4.42524C61.2646 8.28727 64.6492 13.5739 64.5835 19.3707Z" fill="#990505"/>
<path d="M64.3233 19.3657C64.192 30.8609 50.4261 40.0247 33.5736 39.8327C16.7211 39.6407 3.16733 30.1663 3.29868 18.6711C3.36435 12.9248 6.8374 7.75941 12.4019 4.05651C13.7936 3.13205 15.3167 2.29599 16.9484 1.56602C17.7642 1.20229 18.6079 0.863829 19.4768 0.553149C19.9112 0.399072 20.3507 0.250047 20.7978 0.108599C21.0201 0.0378754 21.2449 -0.0303227 21.4722 -0.0985208V-0.025271H45.5663V-0.123779C45.68 -0.0909432 45.7936 -0.0555812 45.9073 -0.0227451C49.5445 1.07095 52.8155 2.63445 55.5561 4.54905C61.0346 8.37824 64.389 13.6194 64.3233 19.3657Z" fill="#9A0505"/>
<path d="M64.0657 19.3632C63.9369 30.7599 50.2846 39.8454 33.5761 39.6559C16.8676 39.4665 3.42752 30.0728 3.55634 18.6762C3.62201 12.9779 7.06728 7.85544 12.5837 4.18537C15.3445 2.34655 18.6205 0.87398 22.2527 -0.128784V-0.0252242H45.1243V-0.0605861C45.3516 0.00256021 45.579 0.0707583 45.8038 0.13643C49.4107 1.22255 52.6539 2.7709 55.3692 4.66781C60.8023 8.4667 64.1314 13.6649 64.0657 19.3632Z" fill="#9B0606"/>
<path d="M63.808 19.3606C63.6792 30.6613 50.1457 39.6685 33.5786 39.4816C17.0115 39.2922 3.68766 29.9793 3.81648 18.6787C3.87962 13.0283 7.2971 7.95137 12.7656 4.31161C15.5011 2.49047 18.7493 1.028 22.3512 0.0328137C22.576 -0.0303327 22.8033 -0.0884273 23.0306 -0.149048V-0.025281H44.3438V-0.0833756C44.801 0.0353395 45.2556 0.164158 45.7027 0.298028C49.2793 1.37404 52.4947 2.90976 55.1873 4.79152C60.5724 8.55757 63.8712 13.7103 63.808 19.3606Z" fill="#9C0606"/>
<path d="M63.548 19.3581C63.4217 30.5602 50.0044 39.4917 33.5787 39.3048C17.1531 39.1178 3.94541 29.8833 4.0717 18.6812C4.13485 13.0788 7.52202 8.04731 12.945 4.43787C15.6578 2.63188 18.8808 1.18204 22.4498 0.196957C22.8969 0.0731897 23.3465 -0.0429996 23.8037 -0.151611V-0.0253186H43.5685V-0.0909908C43.7983 -0.035422 44.0257 0.0226726 44.253 0.0807672C44.7076 0.199482 45.1572 0.325775 45.5993 0.459645C49.1456 1.52556 52.3332 3.04865 55.003 4.91525C60.3427 8.64846 63.6137 13.7557 63.548 19.3581Z" fill="#9D0606"/>
<path d="M63.2903 19.3556C63.164 30.4618 49.8629 39.3149 33.5812 39.128C17.2996 38.9436 4.20555 29.7899 4.33184 18.6837C4.39498 13.1319 7.75185 8.1408 13.1269 4.56419C15.8169 2.77336 19.0096 1.33867 22.5483 0.361165C22.9903 0.239924 23.4374 0.123735 23.8921 0.0151235C24.1194 -0.0379195 24.3467 -0.0909624 24.574 -0.141479V-0.0252902H42.7955V-0.0859107C43.7175 0.121209 44.6167 0.356114 45.4957 0.621328C49.0117 1.67966 52.1715 3.1876 54.8161 5.03652C60.1103 8.7369 63.3535 13.8012 63.2903 19.3556Z" fill="#9F0606"/>
<path d="M63.0327 19.3531C62.9065 30.3608 49.724 39.1356 33.5863 38.9538C17.4487 38.7694 4.4683 29.6965 4.59206 18.6888C4.65521 13.185 7.98176 8.23938 13.3113 4.69308C15.9736 2.9174 19.1385 1.49282 22.6469 0.525419C23.5233 0.282938 24.4225 0.06824 25.3394 -0.113621V-0.0252166H41.3357V-0.202026C41.8004 -0.113621 42.2626 -0.0201649 42.7198 0.0833951C43.6317 0.287989 44.5258 0.522894 45.3972 0.783057C48.8829 1.83129 52.0124 3.32659 54.6368 5.16036C59.8805 8.8279 63.0959 13.8468 63.0327 19.3531Z" fill="#A00606"/>
<path d="M62.7751 19.348C62.6513 30.2597 49.5825 38.9562 33.5888 38.7744C17.59 38.595 4.72587 29.6005 4.84964 18.6913C4.91279 13.2355 8.20903 8.33279 13.4906 4.81932C16.1326 3.0588 19.2697 1.64938 22.7453 0.687027C23.6142 0.447071 24.5058 0.2349 25.4126 0.0530381C25.8673 -0.0378927 26.327 -0.121246 26.7892 -0.197021V-0.0252634H41.2649V-0.032841C41.7271 0.0530381 42.1843 0.146495 42.6364 0.250055C43.5407 0.452123 44.4272 0.684502 45.2886 0.944664C48.7414 1.98279 51.8457 3.46547 54.4473 5.28408C59.6506 8.91879 62.8357 13.8947 62.7751 19.348Z" fill="#A10707"/>
<path d="M62.5148 19.3454C62.3911 30.1586 49.441 38.7794 33.5887 38.6C17.7365 38.4207 4.98345 29.5069 5.10722 18.6938C5.16784 13.2859 8.43629 8.42869 13.6724 4.94301C16.2892 3.20017 19.3985 1.80337 22.8438 0.851126C23.7051 0.613696 24.5866 0.40405 25.4883 0.222188C25.9379 0.131258 26.3951 0.0479043 26.8523 -0.0253454H39.8125V-0.0960693C41.6791 0.186826 43.4749 0.590963 45.1875 1.10624C48.61 2.13679 51.6865 3.60431 54.2629 5.40524C59.4207 9.00711 62.578 13.9401 62.5148 19.3454Z" fill="#A20707"/>
<path d="M62.2572 19.343C62.1359 30.0602 49.3021 38.6027 33.5912 38.4233C17.8804 38.244 5.24359 29.4136 5.36736 18.6964C5.42798 13.3391 8.66865 8.52481 13.8542 5.07197C16.4483 3.34428 19.5273 1.95759 22.9422 1.01545C24.6497 0.543112 26.4406 0.181915 28.2945 -0.0555152V-0.0252049H38.3601V-0.111084C38.8299 -0.0555152 39.2971 0.00510531 39.7594 0.0758292C41.6083 0.356199 43.389 0.75781 45.0864 1.26803C48.4786 2.28848 51.5273 3.74337 54.081 5.52915C59.1883 9.09818 62.3178 13.9857 62.2572 19.343Z" fill="#A30707"/>
<path d="M61.9997 19.3404C61.8784 29.9591 49.1608 38.4233 33.5939 38.2464C18.0271 38.0696 5.5039 29.3176 5.62514 18.6989C5.68576 13.3895 8.89612 8.61818 14.0362 5.19818C16.605 3.48565 19.6588 2.11411 23.0409 1.17954C24.7332 0.712259 26.5064 0.353588 28.3452 0.118683C29.2646 -3.16948e-05 30.1992 -0.0859107 31.1464 -0.141479V-0.0252902H36.9104V-0.0758073C37.8576 -3.16799e-05 38.7896 0.10858 39.7065 0.247502C41.5377 0.525346 43.3033 0.921905 44.9855 1.42708C48.3474 2.43742 51.3684 3.87968 53.8993 5.6503C58.9586 9.18902 62.0603 14.0311 61.9997 19.3404Z" fill="#A40707"/>
<path d="M61.7394 19.3379C61.6207 29.8606 49.0192 38.2465 33.5938 38.0722C18.171 37.8954 5.76397 29.2241 5.88268 18.7014C5.9433 13.44 9.12335 8.71417 14.2155 5.32447C19.3076 1.93478 26.3143 -0.118742 34.0283 -0.0303373C49.4537 0.143947 61.8607 8.8152 61.7394 19.3379Z" fill="#A50707"/>
<path d="M61.4813 19.3363C61.5999 8.91256 49.3075 0.321512 34.0255 0.147637C18.7435 -0.0262378 6.25888 8.2829 6.14028 18.7066C6.02168 29.1303 18.314 37.7214 33.596 37.8953C48.878 38.0691 61.3627 29.76 61.4813 19.3363Z" fill="#A60707"/>
<path d="M61.2212 19.3332C61.3387 9.00713 49.1619 0.496561 34.0236 0.324318C18.8852 0.152076 6.51797 8.38338 6.40048 18.7095C6.28299 29.0356 18.4598 37.5461 33.5981 37.7184C48.7364 37.8906 61.1037 29.6593 61.2212 19.3332Z" fill="#A70808"/>
<path d="M60.9636 19.3302C61.08 9.1004 49.0177 0.669153 34.0216 0.498529C19.0256 0.327906 6.77453 8.48251 6.65814 18.7123C6.54174 28.9422 18.6041 37.3734 33.6001 37.544C48.5962 37.7147 60.8472 29.5601 60.9636 19.3302Z" fill="#A80808"/>
<path d="M60.706 19.3273C60.8213 9.19513 48.8734 0.844357 34.0196 0.675352C19.1659 0.506348 7.03105 8.58311 6.91577 18.7153C6.80049 28.8475 18.7484 37.1983 33.6022 37.3673C48.4559 37.5363 60.5907 29.4595 60.706 19.3273Z" fill="#A90808"/>
<path d="M60.4458 19.3244C60.56 9.2898 48.7277 1.01951 34.0176 0.852141C19.3075 0.684775 7.29001 8.68372 7.17584 18.7183C7.06167 28.7528 18.894 37.0231 33.6041 37.1905C48.3142 37.3579 60.3317 29.3589 60.4458 19.3244Z" fill="#AA0808"/>
<path d="M60.1882 19.3215C60.3013 9.38455 48.5834 1.19472 34.0156 1.02897C19.4477 0.86322 7.54653 8.78432 7.43347 18.7212C7.32041 28.6582 19.0383 36.848 33.6061 37.0137C48.174 37.1795 60.0752 29.2584 60.1882 19.3215Z" fill="#AB0808"/>
<path d="M59.9307 19.3186C60.0426 9.47793 48.4392 1.36744 34.0136 1.20331C19.5881 1.03918 7.8031 8.88356 7.69113 18.7242C7.57917 28.5649 19.1826 36.6754 33.6082 36.8395C48.0337 37.0037 59.8187 29.1593 59.9307 19.3186Z" fill="#AC0909"/>
<path d="M59.6731 19.3156C59.7839 9.57255 48.2949 1.54252 34.0116 1.38001C19.7284 1.2175 8.05962 8.98405 7.94876 18.7271C7.83791 28.4701 19.3269 36.5001 33.6102 36.6627C47.8935 36.8252 59.5622 29.0586 59.6731 19.3156Z" fill="#AD0909"/>
<path d="M59.4129 19.3126C59.5226 9.66724 48.1492 1.71768 34.0096 1.55681C19.87 1.39593 8.31858 9.08465 8.20884 18.73C8.0991 28.3754 19.4725 36.325 33.6122 36.4859C47.7518 36.6467 59.3031 28.958 59.4129 19.3126Z" fill="#AE0909"/>
<path d="M59.1553 19.3097C59.2639 9.76199 48.0049 1.89289 34.0076 1.73363C20.0102 1.57437 8.57511 9.18526 8.46647 18.733C8.35784 28.2808 19.6169 36.1499 33.6142 36.3091C47.6115 36.4684 59.0467 28.8575 59.1553 19.3097Z" fill="#AF0909"/>
<path d="M58.8976 19.3068C59.0051 9.85673 47.8605 2.0681 34.0055 1.91046C20.1504 1.75282 8.8315 9.28586 8.72398 18.736C8.61646 28.1861 19.761 35.9747 33.6161 36.1324C47.4712 36.29 58.7901 28.757 58.8976 19.3068Z" fill="#B00909"/>
<path d="M58.6374 19.3039C58.7438 9.95005 47.7148 2.24077 34.0034 2.08477C20.2921 1.92876 9.09051 9.38511 8.98408 18.739C8.87766 28.0928 19.9067 35.8021 33.618 35.9581C47.3294 36.1141 58.531 28.6578 58.6374 19.3039Z" fill="#B10909"/>
<path d="M58.3798 19.301C58.4851 10.0448 47.5706 2.41597 34.0015 2.26159C20.4323 2.10721 9.34703 9.48571 9.24171 18.7419C9.1364 27.9982 20.051 35.627 33.6201 35.7814C47.1892 35.9358 58.2745 28.5572 58.3798 19.301Z" fill="#B20A0A"/>
<path d="M58.1222 19.298C58.2264 10.1394 47.4263 2.59106 33.9995 2.4383C20.5726 2.28553 9.60355 9.58619 9.49935 18.7448C9.39514 27.9034 20.1953 35.4517 33.6221 35.6045C47.0489 35.7573 58.018 28.4566 58.1222 19.298Z" fill="#B30A0A"/>
<path d="M57.8646 19.2951C57.9677 10.2342 47.282 2.76627 33.9975 2.61512C20.7129 2.46397 9.86007 9.68679 9.75698 18.7477C9.65389 27.8087 20.3396 35.2766 33.6241 35.4277C46.9087 35.5789 57.7615 28.3561 57.8646 19.2951Z" fill="#B40A0A"/>
<path d="M57.6045 19.2921C57.7065 10.3274 47.1363 2.93882 33.9955 2.7893C20.8546 2.63979 10.1191 9.78592 10.0171 18.7506C9.91508 27.7153 20.4852 35.1039 33.6261 35.2534C46.767 35.4029 57.5025 28.2568 57.6045 19.2921Z" fill="#B40A0A"/>
<path d="M56.9277 19.2843C57.0268 10.5763 46.7573 3.39925 33.9903 3.25399C21.2232 3.10873 10.7931 10.0502 10.694 18.7583C10.595 27.4664 20.8644 34.6434 33.6315 34.7887C46.3985 34.9339 56.8286 27.9924 56.9277 19.2843Z" fill="#B50B0B"/>
<path d="M56.2484 19.2767C56.3445 10.8239 46.3769 3.85728 33.9851 3.71629C21.5932 3.5753 11.4697 10.3133 11.3735 18.7661C11.2773 27.2189 21.2449 34.1856 33.6368 34.3266C46.0286 34.4676 56.1522 27.7295 56.2484 19.2767Z" fill="#B60C0C"/>
<path d="M55.5689 19.269C55.6622 11.0714 45.9964 4.31518 33.9797 4.17846C21.9631 4.04174 12.1461 10.5763 12.0528 18.7739C11.9595 26.9714 21.6253 33.7277 33.642 33.8644C45.6586 34.0011 55.4756 27.4665 55.5689 19.269Z" fill="#B70D0D"/>
<path d="M54.892 19.2613C54.9824 11.319 45.6173 4.77313 33.9745 4.64066C22.3317 4.50819 12.82 10.8393 12.7297 18.7816C12.6393 26.7239 22.0044 33.2697 33.6472 33.4022C45.2901 33.5347 54.8017 27.2036 54.892 19.2613Z" fill="#B80E0E"/>
<path d="M54.2127 19.2535C54.3001 11.5679 45.2368 5.23352 33.9692 5.10532C22.7016 4.97712 13.4965 11.1036 13.4091 18.7893C13.3216 26.4749 22.3849 32.8092 33.6525 32.9374C44.9201 33.0656 54.1252 26.9391 54.2127 19.2535Z" fill="#B90F0F"/>
<path d="M53.5358 19.2458C53.6204 11.8155 44.8577 5.69147 33.964 5.56752C23.0702 5.44358 14.1705 11.3666 14.0859 18.797C14.0014 26.2273 22.764 32.3513 33.6578 32.4753C44.5516 32.5992 53.4513 26.6762 53.5358 19.2458Z" fill="#BA1010"/>
<path d="M52.8564 19.2381C52.938 12.063 44.4772 6.14937 33.9586 6.02969C23.4401 5.91002 14.8469 11.6296 14.7652 18.8047C14.6836 25.9798 23.1444 31.8934 33.663 32.0131C44.1816 32.1328 52.7747 26.4132 52.8564 19.2381Z" fill="#BB1111"/>
<path d="M52.177 19.2303C52.2558 12.3105 44.0968 6.60728 33.9534 6.49187C23.8101 6.37646 15.5234 11.8926 15.4447 18.8124C15.3659 25.7323 23.5249 31.4355 33.6683 31.5509C43.8117 31.6663 52.0983 26.1502 52.177 19.2303Z" fill="#BC1212"/>
<path d="M51.5001 19.2226C51.576 12.5594 43.7176 7.06771 33.9481 6.95655C24.1786 6.8454 16.1973 12.1569 16.1215 18.8201C16.0457 25.4833 23.904 30.975 33.6736 31.0862C43.4431 31.1973 51.4243 25.8858 51.5001 19.2226Z" fill="#BD1313"/>
<path d="M50.8208 19.215C50.8937 12.8071 43.3372 7.52574 33.9429 7.41885C24.5486 7.31197 16.8739 12.42 16.801 18.8279C16.728 25.2359 24.2845 30.5172 33.6789 30.6241C43.0732 30.731 50.7479 25.6229 50.8208 19.215Z" fill="#BE1414"/>
<path d="M50.1413 19.2071C50.2113 13.0544 42.9567 7.98352 33.9376 7.8809C24.9185 7.77829 17.5503 12.6828 17.4803 18.8355C17.4103 24.9882 24.6649 30.0591 33.6841 30.1618C42.7032 30.2644 50.0713 25.3598 50.1413 19.2071Z" fill="#BF1515"/>
<path d="M49.4645 19.1994C49.5316 13.302 42.5776 8.44147 33.9323 8.3431C25.287 8.24474 18.2242 12.9458 18.1571 18.8432C18.09 24.7407 25.044 29.6012 33.6893 29.6996C42.3346 29.798 49.3974 25.0969 49.4645 19.1994Z" fill="#C01616"/>
<path d="M48.7851 19.1918C48.8493 13.551 42.1971 8.90198 33.927 8.80789C25.657 8.71379 18.9007 13.2103 18.8365 18.851C18.7724 24.4918 25.4246 29.1409 33.6946 29.235C41.9647 29.329 48.7209 24.8326 48.7851 19.1918Z" fill="#C01717"/>
<path d="M48.1083 19.1841C48.1695 13.7986 41.818 9.35993 33.9218 9.27009C26.0255 9.18024 19.5747 13.4732 19.5134 18.8588C19.4521 24.2443 25.8036 28.6829 33.6999 28.7728C41.5961 28.8626 48.047 24.5696 48.1083 19.1841Z" fill="#C11919"/>
<path d="M47.4289 19.1764C47.4873 14.0461 41.4376 9.81783 33.9166 9.73226C26.3955 9.64669 20.2512 13.7362 20.1928 18.8665C20.1345 23.9967 26.1842 28.225 33.7052 28.3106C41.2262 28.3962 47.3706 24.3066 47.4289 19.1764Z" fill="#C21A1A"/>
<path d="M46.7495 19.1686C46.8049 14.2936 41.0571 10.2757 33.9112 10.1944C26.7654 10.1131 20.9276 13.9992 20.8722 18.8742C20.8167 23.7492 26.5646 27.7671 33.7104 27.8484C40.8562 27.9297 46.694 24.0436 46.7495 19.1686Z" fill="#C31B1B"/>
<path d="M46.0726 19.1609C46.1252 14.5412 40.678 10.7337 33.906 10.6566C27.134 10.5796 21.6016 14.2622 21.549 18.8819C21.4965 23.5017 26.9436 27.3092 33.7157 27.3862C40.4877 27.4633 46.0201 23.7807 46.0726 19.1609Z" fill="#C41C1C"/>
<path d="M45.3933 19.1532C45.4429 14.7901 40.2975 11.1941 33.9007 11.1213C27.5039 11.0485 22.2781 14.5265 22.2284 18.8896C22.1788 23.2527 27.3242 26.8487 33.721 26.9215C40.1177 26.9942 45.3436 23.5163 45.3933 19.1532Z" fill="#C51D1D"/>
<path d="M44.7138 19.1454C44.7605 15.0376 39.917 11.652 33.8954 11.5835C27.8738 11.515 22.9545 14.7895 22.9077 18.8973C22.861 23.0051 27.7046 26.3907 33.7261 26.4593C39.7477 26.5278 44.6671 23.2532 44.7138 19.1454Z" fill="#C61E1E"/>
<path d="M44.0371 19.1377C44.0809 15.2852 39.538 12.1099 33.8903 12.0457C28.2425 11.9814 23.6286 15.0524 23.5847 18.905C23.5409 22.7576 28.0838 25.9328 33.7315 25.9971C39.3793 26.0613 43.9932 22.9903 44.0371 19.1377Z" fill="#C71F1F"/>
<path d="M43.3576 19.13C43.3985 15.5327 39.1575 12.5678 33.8849 12.5078C28.6124 12.4478 24.305 15.3154 24.2641 18.9127C24.2231 22.5101 28.4642 25.4749 33.7367 25.5349C39.0093 25.5949 43.3167 22.7273 43.3576 19.13Z" fill="#C82020"/>
<path d="M42.6807 19.1223C42.7187 15.7816 38.7783 13.0283 33.8796 12.9725C28.9809 12.9168 24.9789 15.5798 24.9409 18.9204C24.9029 22.2611 28.8433 25.0144 33.742 25.0702C38.6407 25.1259 42.6427 22.4629 42.6807 19.1223Z" fill="#C92121"/>
<path d="M42.0014 19.1145C42.0365 16.0291 38.3979 13.4862 33.8744 13.4347C29.3509 13.3832 25.6554 15.8427 25.6203 18.9281C25.5852 22.0136 29.2238 24.5565 33.7473 24.608C38.2708 24.6594 41.9663 22.1999 42.0014 19.1145Z" fill="#CA2222"/>
<path d="M41.322 19.1068C41.3542 16.2766 38.0175 13.9441 33.8692 13.8969C29.7209 13.8497 26.332 16.1057 26.2998 18.9359C26.2676 21.766 29.6043 24.0986 33.7526 24.1458C37.9009 24.193 41.2898 21.9369 41.322 19.1068Z" fill="#CB2323"/>
<path d="M40.6451 19.0992C40.6744 16.5243 37.6383 14.4021 33.8638 14.3592C30.0894 14.3163 27.0058 16.3688 26.9765 18.9437C26.9472 21.5186 29.9833 23.6408 33.7577 23.6837C37.5322 23.7267 40.6158 21.6741 40.6451 19.0992Z" fill="#CC2424"/>
<path d="M39.9657 19.0914C39.9921 16.7732 37.2578 14.8625 33.8586 14.8239C30.4593 14.7852 27.6823 16.6331 27.6559 18.9514C27.6295 21.2696 30.3638 23.1803 33.763 23.219C37.1623 23.2576 39.9393 21.4097 39.9657 19.0914Z" fill="#CD2525"/>
</g>
<path d="M2.50312 0H0V58.3624H2.50312V0Z" fill="url(#paint0_linear_14_1085)"/>
<defs>
<linearGradient id="paint0_linear_14_1085" x1="0.166007" y1="29.1812" x2="2.32082" y2="29.1812" gradientUnits="userSpaceOnUse">
<stop offset="0.204" stop-color="#D1DBDF"/>
<stop offset="0.7619" stop-color="#A2B0BF"/>
<stop offset="1" stop-color="#5F6465"/>
</linearGradient>
</defs>
</svg>
