<svg width="490" height="62" viewBox="0 0 490 62" fill="none" xmlns="http://www.w3.org/2000/svg">
<mask id="path-1-outside-1_58_667" maskUnits="userSpaceOnUse" x="0" y="0" width="172" height="61" fill="black">
<rect fill="white" width="172" height="61"/>
<path d="M20.3546 12.6688L2 12.6688L2 2L51.9834 2V12.6688L33.6288 12.6688L33.6288 58.5772L20.3546 58.5772L20.3546 12.6688Z"/>
<path d="M111.731 2L111.731 58.5772H98.4568L98.4568 35.3805H72.3999L72.3999 58.5772L59.1256 58.5772L59.1256 2L72.3999 2V24.3076L98.4568 24.3076V2L111.731 2Z"/>
<path d="M169.713 48.07V58.5772L125.302 58.5772L125.302 2L168.648 2V12.5072L138.494 12.5072V24.7925L165.125 24.7925V34.9764L138.494 34.9764V48.07L169.713 48.07Z"/>
</mask>
<path d="M20.3546 12.6688H22.3546V10.6688H20.3546V12.6688ZM2 12.6688H0L0 14.6688H2L2 12.6688ZM2 2L2 0L0 0L0 2L2 2ZM51.9834 2L53.9834 2V0L51.9834 0V2ZM51.9834 12.6688V14.6688H53.9834V12.6688H51.9834ZM33.6288 12.6688V10.6688H31.6288V12.6688H33.6288ZM33.6288 58.5772V60.5772H35.6288V58.5772H33.6288ZM20.3546 58.5772H18.3546V60.5772H20.3546V58.5772ZM111.731 2H113.731V0L111.731 0V2ZM111.731 58.5772V60.5772L113.731 60.5772V58.5772L111.731 58.5772ZM98.4568 58.5772H96.4568V60.5772H98.4568V58.5772ZM98.4568 35.3805H100.457V33.3805H98.4568V35.3805ZM72.3999 35.3805V33.3805H70.3999V35.3805H72.3999ZM72.3999 58.5772V60.5772H74.3999V58.5772H72.3999ZM59.1256 58.5772H57.1256V60.5772H59.1256V58.5772ZM59.1256 2V0L57.1256 0V2L59.1256 2ZM72.3999 2L74.3999 2V0L72.3999 0V2ZM72.3999 24.3076H70.3999V26.3076H72.3999V24.3076ZM98.4568 24.3076V26.3076H100.457V24.3076H98.4568ZM98.4568 2V0L96.4568 0V2L98.4568 2ZM169.713 48.07H171.713V46.07H169.713V48.07ZM169.713 58.5772V60.5772H171.713V58.5772H169.713ZM125.302 58.5772H123.302V60.5772H125.302V58.5772ZM125.302 2V0L123.302 0V2L125.302 2ZM168.648 2L170.648 2V0L168.648 0V2ZM168.648 12.5072V14.5072H170.648V12.5072H168.648ZM138.494 12.5072V10.5072H136.494V12.5072H138.494ZM138.494 24.7925H136.494V26.7925H138.494V24.7925ZM165.125 24.7925H167.125V22.7925H165.125V24.7925ZM165.125 34.9764V36.9764H167.125V34.9764H165.125ZM138.494 34.9764V32.9764H136.494V34.9764H138.494ZM138.494 48.07H136.494V50.07H138.494V48.07ZM20.3546 10.6688L2 10.6688L2 14.6688L20.3546 14.6688L20.3546 10.6688ZM4 12.6688L4 2L0 2L0 12.6688H4ZM2 4L51.9834 4V0L2 0L2 4ZM49.9834 2V12.6688L53.9834 12.6688V2L49.9834 2ZM51.9834 10.6688L33.6288 10.6688V14.6688L51.9834 14.6688V10.6688ZM31.6288 12.6688L31.6288 58.5772H35.6288L35.6288 12.6688H31.6288ZM33.6288 56.5772L20.3546 56.5772L20.3546 60.5772L33.6288 60.5772L33.6288 56.5772ZM22.3546 58.5772L22.3546 12.6688L18.3546 12.6688L18.3546 58.5772H22.3546ZM109.731 2L109.731 58.5772L113.731 58.5772L113.731 2L109.731 2ZM111.731 56.5772H98.4568V60.5772H111.731V56.5772ZM100.457 58.5772L100.457 35.3805H96.4568L96.4568 58.5772H100.457ZM98.4568 33.3805H72.3999V37.3805H98.4568V33.3805ZM70.3999 35.3805L70.3999 58.5772H74.3999L74.3999 35.3805H70.3999ZM72.3999 56.5772L59.1256 56.5772V60.5772L72.3999 60.5772V56.5772ZM61.1256 58.5772L61.1256 2L57.1256 2L57.1256 58.5772H61.1256ZM59.1256 4L72.3999 4V0L59.1256 0V4ZM70.3999 2V24.3076H74.3999V2L70.3999 2ZM72.3999 26.3076L98.4568 26.3076V22.3076L72.3999 22.3076V26.3076ZM100.457 24.3076V2L96.4568 2V24.3076H100.457ZM98.4568 4L111.731 4V0L98.4568 0V4ZM167.713 48.07V58.5772H171.713V48.07H167.713ZM169.713 56.5772L125.302 56.5772V60.5772L169.713 60.5772V56.5772ZM127.302 58.5772L127.302 2L123.302 2L123.302 58.5772H127.302ZM125.302 4L168.648 4V0L125.302 0V4ZM166.648 2V12.5072H170.648V2L166.648 2ZM168.648 10.5072L138.494 10.5072V14.5072L168.648 14.5072V10.5072ZM136.494 12.5072V24.7925H140.494V12.5072L136.494 12.5072ZM138.494 26.7925L165.125 26.7925V22.7925L138.494 22.7925V26.7925ZM163.125 24.7925V34.9764H167.125V24.7925H163.125ZM165.125 32.9764L138.494 32.9764V36.9764L165.125 36.9764V32.9764ZM136.494 34.9764V48.07H140.494V34.9764H136.494ZM138.494 50.07L169.713 50.07V46.07L138.494 46.07V50.07Z" fill="#DB0000" mask="url(#path-1-outside-1_58_667)"/>
<mask id="path-3-outside-2_58_667" maskUnits="userSpaceOnUse" x="195.909" y="0" width="295" height="62" fill="black">
<rect fill="white" x="195.909" width="295" height="62"/>
<path d="M247.646 12.6688L229.292 12.6688V58.5772L216.181 58.5772V12.6688L197.909 12.6688V2L247.646 2V12.6688Z"/>
<path d="M300.393 48.07V58.5772L255.981 58.5772V2L299.327 2V12.5072L269.173 12.5072V24.7925L295.804 24.7925V34.9764H269.173V48.07H300.393Z"/>
<path d="M362.245 2V58.5772L349.135 58.5772V12.6688L329.469 12.6688L329.059 24.4692C328.786 32.4978 328.131 39.0176 327.093 44.0288C326.055 48.986 324.307 52.8117 321.849 55.5058C319.445 58.1461 316.058 59.4662 311.688 59.4662C309.885 59.4662 307.7 59.1699 305.133 58.5772L305.952 47.5042C306.662 47.7197 307.455 47.8275 308.329 47.8275C311.497 47.8275 313.709 45.9955 314.966 42.3314C316.222 38.6135 317.014 32.8211 317.342 24.9542L318.161 2L362.245 2Z"/>
<path d="M398.776 35.7847L389.599 35.7847V58.5772H376.407V2L389.599 2V24.8733H399.104L414.181 2L428.193 2L409.428 29.3187L428.766 58.5772H413.689L398.776 35.7847Z"/>
<path d="M434.985 2L448.177 2V38.856L475.545 2L488 2V58.5772L474.889 58.5772V21.802L447.522 58.5772L434.985 58.5772V2Z"/>
</mask>
<path d="M247.646 12.6688V14.6688H249.646V12.6688H247.646ZM229.292 12.6688V10.6688H227.292V12.6688H229.292ZM229.292 58.5772V60.5772H231.292V58.5772H229.292ZM216.181 58.5772H214.181V60.5772H216.181V58.5772ZM216.181 12.6688H218.181V10.6688H216.181V12.6688ZM197.909 12.6688H195.909V14.6688H197.909V12.6688ZM197.909 2V0L195.909 0V2L197.909 2ZM247.646 2L249.646 2V0L247.646 0V2ZM300.393 48.07H302.393V46.07H300.393V48.07ZM300.393 58.5772V60.5772H302.393V58.5772H300.393ZM255.981 58.5772H253.981V60.5772H255.981V58.5772ZM255.981 2V0L253.981 0V2L255.981 2ZM299.327 2H301.327V0L299.327 0V2ZM299.327 12.5072V14.5072H301.327V12.5072H299.327ZM269.173 12.5072V10.5072H267.173V12.5072H269.173ZM269.173 24.7925H267.173V26.7925H269.173V24.7925ZM295.804 24.7925L297.804 24.7925V22.7925L295.804 22.7925V24.7925ZM295.804 34.9764V36.9764H297.804V34.9764H295.804ZM269.173 34.9764V32.9764H267.173V34.9764H269.173ZM269.173 48.07H267.173V50.07H269.173V48.07ZM362.245 2H364.245V0L362.245 0V2ZM362.245 58.5772V60.5772H364.245V58.5772H362.245ZM349.135 58.5772H347.135V60.5772H349.135V58.5772ZM349.135 12.6688H351.135V10.6688H349.135V12.6688ZM329.469 12.6688V10.6688H327.537L327.47 12.5994L329.469 12.6688ZM329.059 24.4692L327.061 24.3998L327.061 24.4012L329.059 24.4692ZM327.093 44.0288L329.05 44.4386L329.051 44.4344L327.093 44.0288ZM321.849 55.5058L320.371 54.1578L320.37 54.1595L321.849 55.5058ZM305.133 58.5772L303.138 58.4296L303.012 60.1401L304.683 60.5259L305.133 58.5772ZM305.952 47.5042L306.533 45.5904L304.142 44.8647L303.958 47.3566L305.952 47.5042ZM314.966 42.3314L316.858 42.9802L316.86 42.9717L314.966 42.3314ZM317.342 24.9542L319.34 25.0374L319.341 25.0255L317.342 24.9542ZM318.161 2V0L316.232 0L316.163 1.92865L318.161 2ZM398.776 35.7847L400.45 34.6896L399.858 33.7847H398.776V35.7847ZM389.599 35.7847V33.7847H387.599V35.7847H389.599ZM389.599 58.5772V60.5772H391.599V58.5772H389.599ZM376.407 58.5772H374.407V60.5772H376.407V58.5772ZM376.407 2V0L374.407 0V2L376.407 2ZM389.599 2L391.599 2V0L389.599 0V2ZM389.599 24.8733H387.599V26.8733H389.599V24.8733ZM399.104 24.8733V26.8733H400.181L400.774 25.974L399.104 24.8733ZM414.181 2V0L413.104 0L412.511 0.899306L414.181 2ZM428.193 2L429.841 3.13235L431.993 0L428.193 0V2ZM409.428 29.3187L407.78 28.1863L407.017 29.2972L407.76 30.4215L409.428 29.3187ZM428.766 58.5772V60.5772H432.485L430.435 57.4744L428.766 58.5772ZM413.689 58.5772L412.016 59.6722L412.608 60.5772H413.689V58.5772ZM434.985 2V0L432.985 0V2L434.985 2ZM448.177 2H450.177V0L448.177 0V2ZM448.177 38.856H446.177V44.9041L449.783 40.0483L448.177 38.856ZM475.545 2V0L474.539 0L473.939 0.807654L475.545 2ZM488 2L490 2V0L488 0V2ZM488 58.5772V60.5772H490V58.5772H488ZM474.889 58.5772H472.889V60.5772H474.889V58.5772ZM474.889 21.802H476.889V15.7645L473.285 20.608L474.889 21.802ZM447.522 58.5772V60.5772H448.526L449.126 59.7712L447.522 58.5772ZM434.985 58.5772H432.985V60.5772H434.985V58.5772ZM247.646 10.6688L229.292 10.6688V14.6688L247.646 14.6688V10.6688ZM227.292 12.6688V58.5772H231.292V12.6688H227.292ZM229.292 56.5772L216.181 56.5772V60.5772L229.292 60.5772V56.5772ZM218.181 58.5772V12.6688L214.181 12.6688V58.5772H218.181ZM216.181 10.6688L197.909 10.6688V14.6688L216.181 14.6688V10.6688ZM199.909 12.6688V2L195.909 2V12.6688H199.909ZM197.909 4L247.646 4V0L197.909 0V4ZM245.646 2V12.6688L249.646 12.6688V2L245.646 2ZM298.393 48.07V58.5772H302.393V48.07H298.393ZM300.393 56.5772L255.981 56.5772V60.5772L300.393 60.5772V56.5772ZM257.981 58.5772V2L253.981 2V58.5772H257.981ZM255.981 4L299.327 4V0L255.981 0V4ZM297.327 2V12.5072H301.327V2L297.327 2ZM299.327 10.5072L269.173 10.5072V14.5072L299.327 14.5072V10.5072ZM267.173 12.5072V24.7925H271.173V12.5072L267.173 12.5072ZM269.173 26.7925L295.804 26.7925V22.7925L269.173 22.7925V26.7925ZM293.804 24.7925V34.9764H297.804V24.7925L293.804 24.7925ZM295.804 32.9764H269.173V36.9764H295.804V32.9764ZM267.173 34.9764V48.07H271.173V34.9764H267.173ZM269.173 50.07H300.393V46.07H269.173V50.07ZM360.245 2V58.5772H364.245V2L360.245 2ZM362.245 56.5772L349.135 56.5772V60.5772L362.245 60.5772V56.5772ZM351.135 58.5772V12.6688H347.135V58.5772H351.135ZM349.135 10.6688L329.469 10.6688V14.6688L349.135 14.6688V10.6688ZM327.47 12.5994L327.061 24.3998L331.058 24.5386L331.468 12.7382L327.47 12.5994ZM327.061 24.4012C326.789 32.3725 326.14 38.7673 325.134 43.6231L329.051 44.4344C330.121 39.268 330.783 32.6231 331.058 24.5372L327.061 24.4012ZM325.135 43.6189C324.143 48.356 322.512 51.8111 320.371 54.1578L323.326 56.8539C326.101 53.8123 327.966 49.616 329.05 44.4386L325.135 43.6189ZM320.37 54.1595C318.428 56.2924 315.631 57.4662 311.688 57.4662V61.4662C316.485 61.4662 320.462 59.9998 323.328 56.8522L320.37 54.1595ZM311.688 57.4662C310.089 57.4662 308.064 57.2012 305.583 56.6284L304.683 60.5259C307.337 61.1386 309.682 61.4662 311.688 61.4662V57.4662ZM307.128 58.7248L307.947 47.6518L303.958 47.3566L303.138 58.4296L307.128 58.7248ZM305.371 49.418C306.3 49.6998 307.292 49.8275 308.329 49.8275V45.8275C307.617 45.8275 307.025 45.7397 306.533 45.5904L305.371 49.418ZM308.329 49.8275C310.327 49.8275 312.137 49.2381 313.64 47.9939C315.112 46.7748 316.15 45.043 316.858 42.9802L313.074 41.6827C312.525 43.2839 311.829 44.3002 311.089 44.9131C310.379 45.5009 309.498 45.8275 308.329 45.8275V49.8275ZM316.86 42.9717C318.212 38.9723 319.011 32.9437 319.34 25.0374L315.344 24.8709C315.018 32.6985 314.232 38.2547 313.071 41.6911L316.86 42.9717ZM319.341 25.0255L320.16 2.07135L316.163 1.92865L315.343 24.8828L319.341 25.0255ZM318.161 4L362.245 4V0L318.161 0V4ZM398.776 33.7847H389.599V37.7847L398.776 37.7847V33.7847ZM387.599 35.7847V58.5772H391.599V35.7847H387.599ZM389.599 56.5772H376.407V60.5772H389.599V56.5772ZM378.407 58.5772V2L374.407 2V58.5772H378.407ZM376.407 4L389.599 4V0L376.407 0V4ZM387.599 2V24.8733H391.599V2L387.599 2ZM389.599 26.8733H399.104V22.8733H389.599V26.8733ZM400.774 25.974L415.851 3.10069L412.511 0.899306L397.434 23.7726L400.774 25.974ZM414.181 4L428.193 4V0L414.181 0V4ZM426.544 0.867653L407.78 28.1863L411.077 30.451L429.841 3.13235L426.544 0.867653ZM407.76 30.4215L427.098 59.6799L430.435 57.4744L411.097 28.2159L407.76 30.4215ZM428.766 56.5772H413.689V60.5772H428.766V56.5772ZM415.363 57.4821L400.45 34.6896L397.103 36.8797L412.016 59.6722L415.363 57.4821ZM434.985 4L448.177 4V0L434.985 0V4ZM446.177 2V38.856H450.177V2L446.177 2ZM449.783 40.0483L477.151 3.19235L473.939 0.807654L446.571 37.6636L449.783 40.0483ZM475.545 4L488 4V0L475.545 0V4ZM486 2V58.5772H490V2L486 2ZM488 56.5772L474.889 56.5772V60.5772L488 60.5772V56.5772ZM476.889 58.5772V21.802L472.889 21.802V58.5772H476.889ZM473.285 20.608L445.917 57.3831L449.126 59.7712L476.494 22.996L473.285 20.608ZM447.522 56.5772L434.985 56.5772V60.5772L447.522 60.5772V56.5772ZM436.985 58.5772V2L432.985 2V58.5772H436.985Z" fill="white" mask="url(#path-3-outside-2_58_667)"/>
</svg>
